<?xml version="1.0" standalone="no"?>
<!DOCTYPE svg PUBLIC "-//W3C//DTD SVG 20010904//EN"
 "http://www.w3.org/TR/2001/REC-SVG-20010904/DTD/svg10.dtd">
<svg version="1.0" xmlns="http://www.w3.org/2000/svg"
 width="562.000000pt" height="562.000000pt" viewBox="0 0 562.000000 562.000000"
 preserveAspectRatio="xMidYMid meet">
<metadata>
Created by potrace 1.14, written by Peter Selinger 2001-2017
</metadata>
<g transform="translate(0.000000,562.000000) scale(0.100000,-0.100000)"
fill="#000000" stroke="none">
<path d="M2729 5588 c-6 -20 -6 -39 0 -42 4 -3 7 6 7 20 0 20 -4 32 -7 22z"/>
<path d="M2787 5583 c-3 -5 5 -8 18 -8 13 0 21 3 18 8 -2 4 -10 7 -18 7 -8 0
-16 -3 -18 -7z"/>
<path d="M2915 5579 c-4 -6 -4 -13 -1 -16 3 -4 6 -1 6 6 0 8 8 11 20 8 11 -3
18 -1 14 4 -7 12 -31 11 -39 -2z"/>
<path d="M2972 5561 c-9 -17 -26 -32 -37 -34 -18 -4 -18 -4 2 -6 16 -1 27 8
38 29 19 37 45 40 45 6 0 -20 -4 -24 -22 -21 -16 3 -19 2 -10 -7 19 -19 44 -1
40 29 -4 40 -34 42 -56 4z"/>
<path d="M3113 5565 c0 -6 8 -11 17 -11 9 0 17 5 17 11 0 6 -8 11 -17 11 -9 0
-17 -5 -17 -11z"/>
<path d="M2846 5544 c3 -28 14 -46 14 -23 0 11 2 12 9 1 7 -11 9 -11 14 2 4
10 1 16 -8 16 -24 0 -17 18 8 23 17 3 14 5 -9 6 -28 1 -31 -2 -28 -25z"/>
<path d="M2771 5544 c0 -11 3 -14 6 -6 3 7 2 16 -1 19 -3 4 -6 -2 -5 -13z"/>
<path d="M2790 5550 c0 -5 7 -7 15 -4 8 4 15 8 15 10 0 2 -7 4 -15 4 -8 0 -15
-4 -15 -10z"/>
<path d="M2926 5552 c-3 -5 1 -9 9 -9 8 0 15 4 15 9 0 4 -4 8 -9 8 -6 0 -12
-4 -15 -8z"/>
<path d="M3183 5553 c9 -2 23 -2 30 0 6 3 -1 5 -18 5 -16 0 -22 -2 -12 -5z"/>
<path d="M2805 5530 c-19 -8 -19 -9 3 -9 12 -1 22 4 22 9 0 6 -1 10 -2 9 -2 0
-12 -4 -23 -9z"/>
<path d="M3183 5533 c9 -2 23 -2 30 0 6 3 -1 5 -18 5 -16 0 -22 -2 -12 -5z"/>
<path d="M2912 5504 c9 -9 21 -15 27 -13 6 2 -2 10 -17 17 -25 11 -25 11 -10
-4z"/>
<path d="M2978 5498 c5 -5 16 -8 23 -6 8 3 3 7 -10 11 -17 4 -21 3 -13 -5z"/>
<path d="M2788 5493 c6 -2 18 -2 25 0 6 3 1 5 -13 5 -14 0 -19 -2 -12 -5z"/>
<path d="M2680 5441 c0 -5 -10 -12 -22 -14 -17 -3 -14 -5 9 -6 25 -1 31 2 27
14 -7 17 -14 20 -14 6z"/>
<path d="M2787 5443 c-3 -5 5 -8 18 -8 13 0 21 3 18 8 -2 4 -10 7 -18 7 -8 0
-16 -3 -18 -7z"/>
<path d="M2849 5433 c-12 -16 -12 -17 1 -7 8 6 22 14 30 17 13 5 12 6 -1 6 -9
1 -23 -7 -30 -16z"/>
<path d="M2915 5439 c-4 -6 -4 -13 -1 -16 3 -4 6 -1 6 6 0 8 8 11 20 8 11 -3
18 -1 14 4 -7 12 -31 11 -39 -2z"/>
<path d="M2972 5421 c-9 -17 -26 -32 -37 -34 -18 -4 -18 -4 2 -6 16 -1 27 8
38 29 19 37 45 40 45 6 0 -20 -4 -24 -22 -21 -16 3 -19 2 -10 -7 19 -19 44 -1
40 29 -4 40 -34 42 -56 4z"/>
<path d="M3040 5439 c0 -5 5 -7 10 -4 6 3 10 2 10 -4 0 -5 -6 -12 -12 -14 -10
-4 -10 -6 0 -6 7 -1 11 -5 7 -10 -3 -6 4 -8 15 -6 22 4 28 -10 8 -19 -7 -2 -3
-4 9 -2 12 1 26 5 29 9 4 4 13 2 21 -5 7 -6 16 -8 20 -4 3 3 1 6 -5 6 -7 0
-12 5 -12 10 0 15 16 12 34 -6 12 -12 16 -12 16 -2 0 11 2 11 9 0 7 -11 9 -11
14 2 4 10 1 16 -8 16 -24 0 -17 18 8 23 16 3 13 5 -10 6 -26 1 -31 -2 -26 -16
5 -13 2 -15 -11 -10 -10 4 -20 7 -22 7 -3 0 -3 4 0 9 4 5 -3 7 -14 4 -22 -6
-28 12 -7 21 6 2 3 4 -8 3 -11 -2 -25 -6 -32 -10 -6 -4 -14 -3 -18 3 -8 13
-25 13 -25 -1z m87 -29 c15 0 14 -2 -2 -13 -15 -12 -21 -12 -35 2 -12 11 -14
20 -7 29 9 11 12 10 19 -2 5 -9 16 -16 25 -16z"/>
<path d="M3370 5439 c0 -5 5 -7 10 -4 6 3 10 2 10 -4 0 -5 -6 -12 -12 -14 -10
-4 -10 -6 0 -6 7 -1 11 -5 7 -10 -3 -6 4 -8 15 -6 22 4 28 -10 8 -19 -7 -2 -4
-4 7 -3 11 2 25 6 32 10 6 4 14 3 18 -3 3 -5 12 -10 18 -10 7 0 6 4 -3 10 -13
9 -13 11 0 20 11 7 11 10 2 10 -7 0 -11 4 -8 9 4 5 -3 7 -14 4 -22 -6 -28 12
-7 21 6 2 3 4 -8 3 -11 -2 -25 -6 -32 -10 -6 -4 -14 -3 -18 3 -8 13 -25 13
-25 -1z m87 -29 c15 0 14 -2 -2 -13 -15 -12 -21 -12 -35 2 -12 11 -14 20 -7
29 9 11 12 10 19 -2 5 -9 16 -16 25 -16z"/>
<path d="M2594 5416 c-8 -8 -7 -15 0 -22 8 -8 15 -7 22 0 8 8 7 15 0 22 -8 8
-15 7 -22 0z"/>
<path d="M2716 5405 c3 -29 14 -47 14 -24 0 11 2 12 9 1 7 -11 9 -11 14 2 4
10 1 16 -8 16 -8 0 -15 5 -15 10 0 16 38 11 43 -5 4 -11 4 -10 3 2 -1 12 -11
19 -32 21 -29 3 -31 1 -28 -23z"/>
<path d="M2890 5413 c0 -13 5 -23 10 -23 13 0 13 11 0 30 -8 12 -10 11 -10 -7z"/>
<path d="M3254 5416 c-8 -8 -7 -15 0 -22 8 -8 15 -7 22 0 8 8 7 15 0 22 -8 8
-15 7 -22 0z"/>
<path d="M2790 5410 c0 -5 7 -7 15 -4 8 4 15 8 15 10 0 2 -7 4 -15 4 -8 0 -15
-4 -15 -10z"/>
<path d="M2857 5413 c-14 -13 -6 -33 12 -33 14 0 18 5 14 20 -5 21 -15 25 -26
13z"/>
<path d="M2926 5412 c-3 -5 1 -9 9 -9 8 0 15 4 15 9 0 4 -4 8 -9 8 -6 0 -12
-4 -15 -8z"/>
<path d="M3513 5413 c9 -2 23 -2 30 0 6 3 -1 5 -18 5 -16 0 -22 -2 -12 -5z"/>
<path d="M2646 5401 c-3 -4 -1 -13 5 -21 7 -13 9 -13 9 0 0 12 2 12 9 2 7 -11
9 -11 14 1 6 15 -29 32 -37 18z"/>
<path d="M2810 5393 c-24 -12 -24 -13 -3 -13 12 0 25 5 28 11 11 16 2 17 -25
2z"/>
<path d="M3313 5403 c9 -2 25 -2 35 0 9 3 1 5 -18 5 -19 0 -27 -2 -17 -5z"/>
<path d="M3513 5393 c9 -2 23 -2 30 0 6 3 -1 5 -18 5 -16 0 -22 -2 -12 -5z"/>
<path d="M2912 5364 c9 -9 21 -15 27 -13 6 2 -2 10 -17 17 -25 11 -25 11 -10
-4z"/>
<path d="M2848 5358 c5 -5 16 -8 23 -6 8 3 3 7 -10 11 -17 4 -21 3 -13 -5z"/>
<path d="M2978 5358 c5 -5 16 -8 23 -6 8 3 3 7 -10 11 -17 4 -21 3 -13 -5z"/>
<path d="M2788 5353 c6 -2 18 -2 25 0 6 3 1 5 -13 5 -14 0 -19 -2 -12 -5z"/>
<path d="M2585 5299 c-4 -6 -4 -13 -1 -16 3 -4 6 -1 6 6 0 8 8 11 20 8 11 -3
18 -1 14 4 -7 12 -31 11 -39 -2z"/>
<path d="M2642 5281 c-9 -17 -26 -32 -37 -34 -18 -4 -18 -4 2 -6 16 -1 27 8
38 29 19 37 45 40 45 6 0 -20 -4 -24 -22 -21 -16 3 -19 2 -10 -7 19 -19 44 -1
40 29 -4 40 -34 42 -56 4z"/>
<path d="M2719 5293 c-12 -16 -12 -17 1 -7 8 6 22 14 30 17 13 5 12 6 -1 6 -9
1 -23 -7 -30 -16z"/>
<path d="M2787 5303 c-3 -5 5 -8 18 -8 13 0 21 3 18 8 -2 4 -10 7 -18 7 -8 0
-16 -3 -18 -7z"/>
<path d="M2849 5293 c-12 -16 -12 -17 1 -7 8 6 22 14 30 17 13 5 12 6 -1 6 -9
1 -23 -7 -30 -16z"/>
<path d="M2915 5299 c-4 -6 -4 -13 -1 -16 3 -4 6 -1 6 6 0 8 8 11 20 8 11 -3
18 -1 14 4 -7 12 -31 11 -39 -2z"/>
<path d="M2972 5281 c-9 -17 -26 -32 -37 -34 -18 -4 -18 -4 2 -6 16 -1 27 8
38 29 19 37 45 40 45 6 0 -20 -4 -24 -22 -21 -16 3 -19 2 -10 -7 19 -19 44 -1
40 29 -4 40 -34 42 -56 4z"/>
<path d="M3049 5293 c-12 -16 -12 -17 1 -7 8 6 22 14 30 17 13 5 12 6 -1 6 -9
1 -23 -7 -30 -16z"/>
<path d="M3117 5303 c-3 -5 5 -8 18 -8 13 0 21 3 18 8 -2 4 -10 7 -18 7 -8 0
-16 -3 -18 -7z"/>
<path d="M3179 5293 c-12 -16 -12 -17 1 -7 8 6 22 14 30 17 13 5 12 6 -1 6 -9
1 -23 -7 -30 -16z"/>
<path d="M3245 5299 c-4 -6 -4 -13 -1 -16 3 -4 6 -1 6 6 0 8 8 11 20 8 11 -3
18 -1 14 4 -7 12 -31 11 -39 -2z"/>
<path d="M3302 5281 c-9 -17 -26 -32 -37 -34 -18 -4 -18 -4 2 -6 16 -1 27 8
38 29 19 37 45 40 45 6 0 -20 -4 -24 -22 -21 -16 3 -19 2 -10 -7 19 -19 44 -1
40 29 -4 40 -34 42 -56 4z"/>
<path d="M3379 5293 c-12 -16 -12 -17 1 -7 8 6 22 14 30 17 13 5 12 6 -1 6 -9
1 -23 -7 -30 -16z"/>
<path d="M3447 5303 c-3 -5 5 -8 18 -8 13 0 21 3 18 8 -2 4 -10 7 -18 7 -8 0
-16 -3 -18 -7z"/>
<path d="M2516 5264 c3 -28 14 -46 14 -23 0 11 2 12 9 1 7 -11 9 -11 14 2 4
10 1 16 -8 16 -24 0 -17 18 8 23 17 3 14 5 -9 6 -28 1 -31 -2 -28 -25z"/>
<path d="M2760 5271 c0 -12 5 -21 10 -21 6 0 10 6 10 14 0 8 -4 18 -10 21 -5
3 -10 -3 -10 -14z"/>
<path d="M2890 5273 c0 -13 5 -23 10 -23 13 0 13 11 0 30 -8 12 -10 11 -10 -7z"/>
<path d="M3090 5271 c0 -12 5 -21 10 -21 6 0 10 6 10 14 0 8 -4 18 -10 21 -5
3 -10 -3 -10 -14z"/>
<path d="M3220 5273 c0 -13 5 -23 10 -23 13 0 13 11 0 30 -8 12 -10 11 -10 -7z"/>
<path d="M3420 5271 c0 -12 5 -21 10 -21 6 0 10 6 10 14 0 8 -4 18 -10 21 -5
3 -10 -3 -10 -14z"/>
<path d="M3506 5264 c3 -28 14 -46 14 -23 0 11 2 12 9 1 7 -11 9 -11 14 2 4
10 1 16 -8 16 -24 0 -17 18 8 23 17 3 14 5 -9 6 -28 1 -31 -2 -28 -25z"/>
<path d="M2463 5273 c9 -2 23 -2 30 0 6 3 -1 5 -18 5 -16 0 -22 -2 -12 -5z"/>
<path d="M2596 5272 c-3 -5 1 -9 9 -9 8 0 15 4 15 9 0 4 -4 8 -9 8 -6 0 -12
-4 -15 -8z"/>
<path d="M2727 5273 c-14 -13 -6 -33 12 -33 14 0 18 5 14 20 -5 21 -15 25 -26
13z"/>
<path d="M2790 5270 c0 -5 7 -7 15 -4 8 4 15 8 15 10 0 2 -7 4 -15 4 -8 0 -15
-4 -15 -10z"/>
<path d="M2857 5273 c-14 -13 -6 -33 12 -33 14 0 18 5 14 20 -5 21 -15 25 -26
13z"/>
<path d="M2926 5272 c-3 -5 1 -9 9 -9 8 0 15 4 15 9 0 4 -4 8 -9 8 -6 0 -12
-4 -15 -8z"/>
<path d="M3057 5273 c-14 -13 -6 -33 12 -33 14 0 18 5 14 20 -5 21 -15 25 -26
13z"/>
<path d="M3120 5270 c0 -5 7 -7 15 -4 8 4 15 8 15 10 0 2 -7 4 -15 4 -8 0 -15
-4 -15 -10z"/>
<path d="M3187 5273 c-14 -13 -6 -33 12 -33 14 0 18 5 14 20 -5 21 -15 25 -26
13z"/>
<path d="M3256 5272 c-3 -5 1 -9 9 -9 8 0 15 4 15 9 0 4 -4 8 -9 8 -6 0 -12
-4 -15 -8z"/>
<path d="M3387 5273 c-14 -13 -6 -33 12 -33 14 0 18 5 14 20 -5 21 -15 25 -26
13z"/>
<path d="M3450 5270 c0 -5 7 -7 15 -4 8 4 15 8 15 10 0 2 -7 4 -15 4 -8 0 -15
-4 -15 -10z"/>
<path d="M2810 5253 c-24 -12 -24 -13 -3 -13 12 0 25 5 28 11 11 16 2 17 -25
2z"/>
<path d="M3140 5253 c-24 -12 -24 -13 -3 -13 12 0 25 5 28 11 11 16 2 17 -25
2z"/>
<path d="M2463 5253 c9 -2 23 -2 30 0 6 3 -1 5 -18 5 -16 0 -22 -2 -12 -5z"/>
<path d="M3465 5250 c-19 -8 -19 -9 3 -9 12 -1 22 4 22 9 0 6 -1 10 -2 9 -2 0
-12 -4 -23 -9z"/>
<path d="M2582 5224 c9 -9 21 -15 27 -13 6 2 -2 10 -17 17 -25 11 -25 11 -10
-4z"/>
<path d="M2912 5224 c9 -9 21 -15 27 -13 6 2 -2 10 -17 17 -25 11 -25 11 -10
-4z"/>
<path d="M3242 5224 c9 -9 21 -15 27 -13 6 2 -2 10 -17 17 -25 11 -25 11 -10
-4z"/>
<path d="M2648 5218 c5 -5 16 -8 23 -6 8 3 3 7 -10 11 -17 4 -21 3 -13 -5z"/>
<path d="M2718 5218 c5 -5 16 -8 23 -6 8 3 3 7 -10 11 -17 4 -21 3 -13 -5z"/>
<path d="M2848 5218 c5 -5 16 -8 23 -6 8 3 3 7 -10 11 -17 4 -21 3 -13 -5z"/>
<path d="M2978 5218 c5 -5 16 -8 23 -6 8 3 3 7 -10 11 -17 4 -21 3 -13 -5z"/>
<path d="M3048 5218 c5 -5 16 -8 23 -6 8 3 3 7 -10 11 -17 4 -21 3 -13 -5z"/>
<path d="M3178 5218 c5 -5 16 -8 23 -6 8 3 3 7 -10 11 -17 4 -21 3 -13 -5z"/>
<path d="M3308 5218 c5 -5 16 -8 23 -6 8 3 3 7 -10 11 -17 4 -21 3 -13 -5z"/>
<path d="M3378 5218 c5 -5 16 -8 23 -6 8 3 3 7 -10 11 -17 4 -21 3 -13 -5z"/>
<path d="M2788 5213 c6 -2 18 -2 25 0 6 3 1 5 -13 5 -14 0 -19 -2 -12 -5z"/>
<path d="M3118 5213 c6 -2 18 -2 25 0 6 3 1 5 -13 5 -14 0 -19 -2 -12 -5z"/>
<path d="M3448 5213 c6 -2 18 -2 25 0 6 3 1 5 -13 5 -14 0 -19 -2 -12 -5z"/>
<path d="M2519 5153 c-12 -16 -12 -17 1 -7 8 6 22 14 30 17 13 5 12 6 -1 6 -9
1 -23 -7 -30 -16z"/>
<path d="M2585 5159 c-4 -6 -4 -13 -1 -16 3 -4 6 -1 6 6 0 8 8 11 20 8 11 -3
18 -1 14 4 -7 12 -31 11 -39 -2z"/>
<path d="M2642 5141 c-9 -17 -26 -32 -37 -34 -18 -4 -18 -4 2 -6 16 -1 27 8
38 29 19 37 45 40 45 6 0 -20 -4 -24 -22 -21 -16 3 -19 2 -10 -7 19 -19 44 -1
40 29 -4 40 -34 42 -56 4z"/>
<path d="M2719 5153 c-12 -16 -12 -17 1 -7 8 6 22 14 30 17 13 5 12 6 -1 6 -9
1 -23 -7 -30 -16z"/>
<path d="M2787 5163 c-3 -5 5 -8 18 -8 13 0 21 3 18 8 -2 4 -10 7 -18 7 -8 0
-16 -3 -18 -7z"/>
<path d="M2849 5153 c-12 -16 -12 -17 1 -7 8 6 22 14 30 17 13 5 12 6 -1 6 -9
1 -23 -7 -30 -16z"/>
<path d="M2920 5163 c0 -23 2 -28 11 -25 5 1 9 -2 9 -8 0 -18 -40 -11 -41 8
-1 11 -4 9 -9 -8 -6 -18 -8 -20 -9 -7 -1 22 -25 17 -29 -6 -3 -13 5 -15 50
-12 45 3 52 6 52 24 0 12 -3 21 -8 20 -5 0 -13 5 -17 13 -7 10 -9 10 -9 1z"/>
<path d="M3010 5161 c0 -5 -10 -12 -22 -14 -17 -3 -14 -5 9 -6 25 -1 31 2 27
14 -7 17 -14 20 -14 6z"/>
<path d="M3049 5153 c-12 -16 -12 -17 1 -7 8 6 22 14 30 17 13 5 12 6 -1 6 -9
1 -23 -7 -30 -16z"/>
<path d="M3117 5163 c-3 -5 5 -8 18 -8 13 0 21 3 18 8 -2 4 -10 7 -18 7 -8 0
-16 -3 -18 -7z"/>
<path d="M3179 5153 c-12 -16 -12 -17 1 -7 8 6 22 14 30 17 13 5 12 6 -1 6 -9
1 -23 -7 -30 -16z"/>
<path d="M3519 5168 c-6 -20 -6 -39 0 -42 4 -3 7 6 7 20 0 20 -4 32 -7 22z"/>
<path d="M2453 5145 c0 -6 8 -11 17 -11 9 0 17 5 17 11 0 6 -8 11 -17 11 -9 0
-17 -5 -17 -11z"/>
<path d="M2560 5133 c0 -13 5 -23 10 -23 13 0 13 11 0 30 -8 12 -10 11 -10 -7z"/>
<path d="M2760 5131 c0 -12 5 -21 10 -21 6 0 10 6 10 14 0 8 -4 18 -10 21 -5
3 -10 -3 -10 -14z"/>
<path d="M3090 5131 c0 -12 5 -21 10 -21 6 0 10 6 10 14 0 8 -4 18 -10 21 -5
3 -10 -3 -10 -14z"/>
<path d="M3220 5130 c-2 -18 -4 -20 -7 -7 -6 22 -27 17 -31 -6 -2 -12 3 -17
18 -17 22 0 35 21 27 42 -3 7 -6 2 -7 -12z"/>
<path d="M3250 5140 c-12 -8 -12 -10 -1 -10 11 0 11 -3 1 -14 -10 -13 -8 -13
14 -3 14 7 21 14 16 15 -6 2 -8 8 -4 13 7 12 -7 11 -26 -1z"/>
<path d="M2527 5133 c-14 -13 -6 -33 12 -33 14 0 18 5 14 20 -5 21 -15 25 -26
13z"/>
<path d="M2596 5132 c-3 -5 1 -9 9 -9 8 0 15 4 15 9 0 4 -4 8 -9 8 -6 0 -12
-4 -15 -8z"/>
<path d="M2727 5133 c-14 -13 -6 -33 12 -33 14 0 18 5 14 20 -5 21 -15 25 -26
13z"/>
<path d="M2790 5130 c0 -5 7 -7 15 -4 8 4 15 8 15 10 0 2 -7 4 -15 4 -8 0 -15
-4 -15 -10z"/>
<path d="M3057 5133 c-14 -13 -6 -33 12 -33 14 0 18 5 14 20 -5 21 -15 25 -26
13z"/>
<path d="M3120 5130 c0 -5 7 -7 15 -4 8 4 15 8 15 10 0 2 -7 4 -15 4 -8 0 -15
-4 -15 -10z"/>
<path d="M3318 5133 c6 -2 18 -2 25 0 6 3 1 5 -13 5 -14 0 -19 -2 -12 -5z"/>
<path d="M2810 5113 c-24 -12 -24 -13 -3 -13 12 0 25 5 28 11 11 16 2 17 -25
2z"/>
<path d="M2976 5121 c-3 -4 -1 -13 5 -21 7 -13 9 -13 9 0 0 12 2 12 9 2 7 -11
9 -11 14 1 6 15 -29 32 -37 18z"/>
<path d="M3140 5113 c-24 -12 -24 -13 -3 -13 12 0 25 5 28 11 11 16 2 17 -25
2z"/>
<path d="M3318 5113 c6 -2 18 -2 25 0 6 3 1 5 -13 5 -14 0 -19 -2 -12 -5z"/>
<path d="M2582 5084 c9 -9 21 -15 27 -13 6 2 -2 10 -17 17 -25 11 -25 11 -10
-4z"/>
<path d="M2518 5078 c5 -5 16 -8 23 -6 8 3 3 7 -10 11 -17 4 -21 3 -13 -5z"/>
<path d="M2648 5078 c5 -5 16 -8 23 -6 8 3 3 7 -10 11 -17 4 -21 3 -13 -5z"/>
<path d="M2718 5078 c5 -5 16 -8 23 -6 8 3 3 7 -10 11 -17 4 -21 3 -13 -5z"/>
<path d="M2848 5078 c5 -5 16 -8 23 -6 8 3 3 7 -10 11 -17 4 -21 3 -13 -5z"/>
<path d="M3048 5078 c5 -5 16 -8 23 -6 8 3 3 7 -10 11 -17 4 -21 3 -13 -5z"/>
<path d="M3178 5078 c5 -5 16 -8 23 -6 8 3 3 7 -10 11 -17 4 -21 3 -13 -5z"/>
<path d="M2788 5073 c6 -2 18 -2 25 0 6 3 1 5 -13 5 -14 0 -19 -2 -12 -5z"/>
<path d="M3118 5073 c6 -2 18 -2 25 0 6 3 1 5 -13 5 -14 0 -19 -2 -12 -5z"/>
<path d="M2585 5019 c-4 -6 -4 -13 -1 -16 3 -4 6 -1 6 6 0 8 8 11 20 8 11 -3
18 -1 14 4 -7 12 -31 11 -39 -2z"/>
<path d="M2642 5001 c-9 -17 -26 -32 -37 -34 -18 -4 -18 -4 2 -6 16 -1 27 8
38 29 19 37 45 40 45 6 0 -20 -4 -24 -22 -21 -16 3 -19 2 -10 -7 19 -19 44 -1
40 29 -4 40 -34 42 -56 4z"/>
<path d="M2719 5013 c-12 -16 -12 -17 1 -7 8 6 22 14 30 17 13 5 12 6 -1 6 -9
1 -23 -7 -30 -16z"/>
<path d="M2787 5023 c-3 -5 5 -8 18 -8 13 0 21 3 18 8 -2 4 -10 7 -18 7 -8 0
-16 -3 -18 -7z"/>
<path d="M3040 5019 c0 -5 5 -7 10 -4 6 3 10 2 10 -4 0 -5 -6 -12 -12 -14 -10
-4 -10 -6 0 -6 7 -1 11 -5 7 -10 -3 -6 4 -8 15 -6 22 4 28 -10 8 -18 -10 -4
-10 -6 -1 -6 6 -1 15 4 18 9 3 6 19 10 34 10 24 0 28 4 25 26 -3 28 -14 46
-14 23 0 -11 -2 -12 -9 -1 -7 11 -9 11 -14 -2 -4 -10 -1 -16 8 -16 8 0 15 -4
15 -10 0 -11 -30 -13 -55 -4 -14 6 -14 8 2 28 14 16 15 18 1 8 -11 -9 -18 -10
-23 -2 -8 13 -25 13 -25 -1z"/>
<path d="M3179 5013 c-12 -16 -12 -17 1 -7 8 6 22 14 30 17 13 5 12 6 -1 6 -9
1 -23 -7 -30 -16z"/>
<path d="M3519 5028 c-6 -20 -6 -39 0 -42 4 -3 7 6 7 20 0 20 -4 32 -7 22z"/>
<path d="M2516 4984 c3 -28 14 -46 14 -23 0 11 2 12 9 1 7 -11 9 -11 14 2 4
10 1 16 -8 16 -24 0 -17 18 8 23 17 3 14 5 -9 6 -28 1 -31 -2 -28 -25z"/>
<path d="M2760 4991 c0 -12 5 -21 10 -21 6 0 10 6 10 14 0 8 -4 18 -10 21 -5
3 -10 -3 -10 -14z"/>
<path d="M2846 4984 c3 -28 14 -46 14 -23 0 11 2 12 9 1 7 -11 9 -11 14 2 4
10 1 16 -8 16 -24 0 -17 18 8 23 17 3 14 5 -9 6 -28 1 -31 -2 -28 -25z"/>
<path d="M2924 4996 c-8 -8 -7 -15 0 -22 8 -8 15 -7 22 0 8 8 7 15 0 22 -8 8
-15 7 -22 0z"/>
<path d="M3220 4990 c-2 -18 -4 -20 -7 -7 -6 22 -27 17 -31 -6 -2 -12 3 -17
18 -17 22 0 35 21 27 42 -3 7 -6 2 -7 -12z"/>
<path d="M3254 4996 c-8 -8 -7 -15 0 -22 8 -8 15 -7 22 0 8 8 7 15 0 22 -8 8
-15 7 -22 0z"/>
<path d="M2596 4992 c-3 -5 1 -9 9 -9 8 0 15 4 15 9 0 4 -4 8 -9 8 -6 0 -12
-4 -15 -8z"/>
<path d="M2727 4993 c-14 -13 -6 -33 12 -33 14 0 18 5 14 20 -5 21 -15 25 -26
13z"/>
<path d="M2790 4990 c0 -5 7 -7 15 -4 8 4 15 8 15 10 0 2 -7 4 -15 4 -8 0 -15
-4 -15 -10z"/>
<path d="M2468 4983 c7 -3 16 -2 19 1 4 3 -2 6 -13 5 -11 0 -14 -3 -6 -6z"/>
<path d="M2983 4983 c9 -2 25 -2 35 0 9 3 1 5 -18 5 -19 0 -27 -2 -17 -5z"/>
<path d="M2805 4970 c-19 -8 -19 -9 3 -9 12 -1 22 4 22 9 0 6 -1 10 -2 9 -2 0
-12 -4 -23 -9z"/>
<path d="M2582 4944 c9 -9 21 -15 27 -13 6 2 -2 10 -17 17 -25 11 -25 11 -10
-4z"/>
<path d="M2648 4938 c5 -5 16 -8 23 -6 8 3 3 7 -10 11 -17 4 -21 3 -13 -5z"/>
<path d="M2718 4938 c5 -5 16 -8 23 -6 8 3 3 7 -10 11 -17 4 -21 3 -13 -5z"/>
<path d="M3178 4938 c5 -5 16 -8 23 -6 8 3 3 7 -10 11 -17 4 -21 3 -13 -5z"/>
<path d="M2788 4933 c6 -2 18 -2 25 0 6 3 1 5 -13 5 -14 0 -19 -2 -12 -5z"/>
<path d="M2585 4879 c-4 -6 -4 -13 -1 -16 3 -4 6 -1 6 6 0 8 8 11 20 8 11 -3
18 -1 14 4 -7 12 -31 11 -39 -2z"/>
<path d="M2642 4861 c-9 -17 -26 -32 -37 -34 -18 -4 -18 -4 2 -6 16 -1 27 8
38 29 19 37 45 40 45 6 0 -20 -4 -24 -22 -21 -16 3 -19 2 -10 -7 19 -19 44 -1
40 29 -4 40 -34 42 -56 4z"/>
<path d="M2719 4873 c-12 -16 -12 -17 1 -7 8 6 22 14 30 17 13 5 12 6 -1 6 -9
1 -23 -7 -30 -16z"/>
<path d="M2787 4876 c-4 -10 -1 -16 8 -16 8 0 15 -4 15 -10 0 -18 -40 -11 -41
8 -1 11 -4 9 -9 -8 -6 -18 -8 -20 -9 -7 -1 23 -25 17 -30 -8 -3 -15 2 -17 29
-11 18 3 43 6 55 6 18 0 22 5 19 26 -3 28 -14 46 -14 23 0 -11 -2 -12 -9 -1
-7 11 -9 11 -14 -2z"/>
<path d="M2840 4879 c0 -5 5 -7 10 -4 6 3 10 2 10 -4 0 -5 -6 -12 -12 -14 -10
-4 -10 -6 0 -6 7 -1 11 -5 7 -10 -3 -6 4 -8 15 -6 22 4 28 -10 8 -18 -10 -4
-10 -6 -1 -6 20 -2 27 21 10 34 -15 11 -15 13 1 30 15 17 15 17 0 6 -11 -8
-18 -9 -23 -1 -8 13 -25 13 -25 -1z"/>
<path d="M3105 4880 c-9 -14 3 -30 22 -30 12 0 12 -3 -4 -17 -10 -10 -14 -14
-7 -10 7 4 15 3 19 -3 3 -5 12 -10 18 -9 9 0 9 2 0 6 -20 7 -15 26 5 19 16 -6
16 -5 0 7 -10 8 -15 17 -12 20 3 3 -3 3 -15 0 -22 -6 -30 12 -8 20 9 4 9 6 0
6 -6 1 -15 -3 -18 -9z"/>
<path d="M3179 4873 c-12 -16 -12 -17 1 -7 8 6 22 14 30 17 13 5 12 6 -1 6 -9
1 -23 -7 -30 -16z"/>
<path d="M3245 4879 c-4 -6 -4 -13 -1 -16 3 -4 6 -1 6 6 0 8 8 11 20 8 11 -3
18 -1 14 4 -7 12 -31 11 -39 -2z"/>
<path d="M3302 4861 c-9 -17 -26 -32 -37 -34 -18 -4 -18 -4 2 -6 16 -1 27 8
38 29 19 37 45 40 45 6 0 -20 -4 -24 -22 -21 -16 3 -19 2 -10 -7 19 -19 44 -1
40 29 -4 40 -34 42 -56 4z"/>
<path d="M3389 4888 c-6 -20 -6 -39 0 -42 4 -3 7 6 7 20 0 20 -4 32 -7 22z"/>
<path d="M2524 4856 c-8 -8 -7 -15 0 -22 8 -8 15 -7 22 0 8 8 7 15 0 22 -8 8
-15 7 -22 0z"/>
<path d="M2924 4856 c-8 -8 -7 -15 0 -22 8 -8 15 -7 22 0 8 8 7 15 0 22 -8 8
-15 7 -22 0z"/>
<path d="M3054 4856 c-8 -8 -7 -15 0 -22 8 -8 15 -7 22 0 8 8 7 15 0 22 -8 8
-15 7 -22 0z"/>
<path d="M3220 4853 c0 -13 5 -23 10 -23 13 0 13 11 0 30 -8 12 -10 11 -10 -7z"/>
<path d="M2596 4852 c-3 -5 1 -9 9 -9 8 0 15 4 15 9 0 4 -4 8 -9 8 -6 0 -12
-4 -15 -8z"/>
<path d="M3187 4853 c-14 -13 -6 -33 12 -33 14 0 18 5 14 20 -5 21 -15 25 -26
13z"/>
<path d="M3256 4852 c-3 -5 1 -9 9 -9 8 0 15 4 15 9 0 4 -4 8 -9 8 -6 0 -12
-4 -15 -8z"/>
<path d="M2983 4843 c9 -2 25 -2 35 0 9 3 1 5 -18 5 -19 0 -27 -2 -17 -5z"/>
<path d="M2582 4804 c9 -9 21 -15 27 -13 6 2 -2 10 -17 17 -25 11 -25 11 -10
-4z"/>
<path d="M3242 4804 c9 -9 21 -15 27 -13 6 2 -2 10 -17 17 -25 11 -25 11 -10
-4z"/>
<path d="M2648 4798 c5 -5 16 -8 23 -6 8 3 3 7 -10 11 -17 4 -21 3 -13 -5z"/>
<path d="M2718 4798 c5 -5 16 -8 23 -6 8 3 3 7 -10 11 -17 4 -21 3 -13 -5z"/>
<path d="M3178 4798 c5 -5 16 -8 23 -6 8 3 3 7 -10 11 -17 4 -21 3 -13 -5z"/>
<path d="M3308 4798 c5 -5 16 -8 23 -6 8 3 3 7 -10 11 -17 4 -21 3 -13 -5z"/>
<path d="M2590 4743 c0 -23 2 -28 11 -25 5 1 9 -2 9 -8 0 -5 -10 -10 -22 -11
-22 -1 -22 -1 2 -8 14 -5 28 -6 31 -5 9 5 4 39 -5 41 -5 1 -13 7 -17 15 -7 10
-9 10 -9 1z"/>
<path d="M2652 4738 c-6 -6 -12 -17 -12 -22 0 -6 5 -3 11 7 15 25 39 21 39 -7
0 -20 -4 -24 -22 -21 -16 3 -19 2 -10 -7 19 -19 44 -1 40 29 -3 30 -26 41 -46
21z"/>
<path d="M2775 4740 c-3 -5 -19 -10 -34 -10 -24 0 -28 -4 -25 -26 3 -28 14
-46 14 -23 0 11 2 12 9 1 7 -11 9 -11 14 2 4 10 1 16 -8 16 -8 0 -15 5 -15 10
0 11 24 13 57 4 21 -6 22 -7 5 -23 -10 -9 -13 -12 -6 -8 7 4 15 3 19 -3 3 -5
12 -10 18 -10 7 0 6 4 -3 10 -13 9 -13 11 0 20 11 7 11 10 2 10 -7 0 -11 4 -8
9 4 5 -3 7 -14 4 -22 -6 -28 12 -7 20 9 4 9 6 0 6 -6 1 -15 -3 -18 -9z"/>
<path d="M3117 4736 c-4 -10 -1 -16 8 -16 24 0 17 -18 -7 -23 -18 -3 -15 -5 8
-6 28 -1 31 2 28 25 -3 28 -14 46 -14 23 0 -11 -2 -12 -9 -1 -7 11 -9 11 -14
-2z"/>
<path d="M3179 4733 c-12 -16 -12 -17 1 -7 8 6 22 14 30 17 13 5 12 6 -1 6 -9
1 -23 -7 -30 -16z"/>
<path d="M3245 4739 c-4 -6 -4 -13 -1 -16 3 -4 6 -1 6 6 0 8 8 11 20 8 11 -3
18 -1 14 4 -7 12 -31 11 -39 -2z"/>
<path d="M3302 4721 c-9 -17 -26 -32 -37 -34 -18 -4 -18 -4 2 -6 16 -1 27 8
38 29 19 37 45 40 45 6 0 -20 -4 -24 -22 -21 -16 3 -19 2 -10 -7 19 -19 44 -1
40 29 -4 40 -34 42 -56 4z"/>
<path d="M2854 4716 c-8 -8 -7 -15 0 -22 8 -8 15 -7 22 0 8 8 7 15 0 22 -8 8
-15 7 -22 0z"/>
<path d="M2924 4716 c-8 -8 -7 -15 0 -22 8 -8 15 -7 22 0 8 8 7 15 0 22 -8 8
-15 7 -22 0z"/>
<path d="M3054 4716 c-8 -8 -7 -15 0 -22 8 -8 15 -7 22 0 8 8 7 15 0 22 -8 8
-15 7 -22 0z"/>
<path d="M3220 4713 c0 -13 5 -23 10 -23 13 0 13 11 0 30 -8 12 -10 11 -10 -7z"/>
<path d="M3376 4704 c3 -28 14 -46 14 -23 0 11 2 12 9 1 7 -11 9 -11 14 2 4
10 1 16 -8 16 -24 0 -17 18 8 23 17 3 14 5 -9 6 -28 1 -31 -2 -28 -25z"/>
<path d="M3187 4713 c-14 -13 -6 -33 12 -33 14 0 18 5 14 20 -5 21 -15 25 -26
13z"/>
<path d="M3256 4712 c-3 -5 1 -9 9 -9 8 0 15 4 15 9 0 4 -4 8 -9 8 -6 0 -12
-4 -15 -8z"/>
<path d="M2528 4703 c7 -3 16 -2 19 1 4 3 -2 6 -13 5 -11 0 -14 -3 -6 -6z"/>
<path d="M2983 4703 c9 -2 25 -2 35 0 9 3 1 5 -18 5 -19 0 -27 -2 -17 -5z"/>
<path d="M3458 4703 c7 -3 16 -2 19 1 4 3 -2 6 -13 5 -11 0 -14 -3 -6 -6z"/>
<path d="M3242 4664 c9 -9 21 -15 27 -13 6 2 -2 10 -17 17 -25 11 -25 11 -10
-4z"/>
<path d="M2648 4658 c5 -5 16 -8 23 -6 8 3 3 7 -10 11 -17 4 -21 3 -13 -5z"/>
<path d="M3178 4658 c5 -5 16 -8 23 -6 8 3 3 7 -10 11 -17 4 -21 3 -13 -5z"/>
<path d="M3308 4658 c5 -5 16 -8 23 -6 8 3 3 7 -10 11 -17 4 -21 3 -13 -5z"/>
<path d="M2127 4596 c-4 -10 -1 -16 8 -16 24 0 17 -18 -7 -23 -18 -3 -15 -5 8
-6 28 -1 31 2 28 25 -3 28 -14 46 -14 23 0 -11 -2 -12 -9 -1 -7 11 -9 11 -14
-2z"/>
<path d="M3117 4596 c-4 -10 -1 -16 8 -16 24 0 17 -18 -7 -23 -18 -3 -15 -5 8
-6 28 -1 31 2 28 25 -3 28 -14 46 -14 23 0 -11 -2 -12 -9 -1 -7 11 -9 11 -14
-2z"/>
<path d="M3179 4593 c-12 -16 -12 -17 1 -7 8 6 22 14 30 17 13 5 12 6 -1 6 -9
1 -23 -7 -30 -16z"/>
<path d="M3245 4599 c-4 -6 -4 -13 -1 -16 3 -4 6 -1 6 6 0 8 8 11 20 8 11 -3
18 -1 14 4 -7 12 -31 11 -39 -2z"/>
<path d="M3302 4581 c-9 -17 -26 -32 -37 -34 -18 -4 -18 -4 2 -6 16 -1 27 8
38 29 19 37 45 40 45 6 0 -20 -4 -24 -22 -21 -16 3 -19 2 -10 -7 19 -19 44 -1
40 29 -4 40 -34 42 -56 4z"/>
<path d="M3379 4593 c-12 -16 -12 -17 1 -7 8 6 22 14 30 17 13 5 12 6 -1 6 -9
1 -23 -7 -30 -16z"/>
<path d="M3432 4598 c-7 -7 -13 -21 -13 -32 -1 -18 -2 -18 -6 -3 -6 22 -27 17
-31 -6 -5 -25 38 -22 45 2 3 12 11 17 24 14 18 -5 18 -6 1 -22 -10 -9 -13 -12
-6 -8 7 4 15 3 19 -3 3 -5 12 -10 18 -10 7 0 6 4 -3 10 -13 9 -13 11 0 20 11
7 11 10 2 10 -7 0 -11 4 -8 9 4 5 -3 7 -14 4 -22 -6 -28 12 -7 20 6 3 7 6 2 6
-6 1 -16 -4 -23 -11z"/>
<path d="M2056 4564 c3 -28 14 -46 14 -23 0 11 2 12 9 1 7 -11 9 -11 14 2 4
10 1 16 -8 16 -24 0 -17 18 8 23 17 3 14 5 -9 6 -28 1 -31 -2 -28 -25z"/>
<path d="M2594 4576 c-8 -8 -7 -15 0 -22 8 -8 15 -7 22 0 8 8 7 15 0 22 -8 8
-15 7 -22 0z"/>
<path d="M2724 4576 c-8 -8 -7 -15 0 -22 8 -8 15 -7 22 0 8 8 7 15 0 22 -8 8
-15 7 -22 0z"/>
<path d="M2794 4576 c-8 -8 -7 -15 0 -22 8 -8 15 -7 22 0 8 8 7 15 0 22 -8 8
-15 7 -22 0z"/>
<path d="M2854 4576 c-8 -8 -7 -15 0 -22 8 -8 15 -7 22 0 8 8 7 15 0 22 -8 8
-15 7 -22 0z"/>
<path d="M2924 4576 c-8 -8 -7 -15 0 -22 8 -8 15 -7 22 0 8 8 7 15 0 22 -8 8
-15 7 -22 0z"/>
<path d="M3054 4576 c-8 -8 -7 -15 0 -22 8 -8 15 -7 22 0 8 8 7 15 0 22 -8 8
-15 7 -22 0z"/>
<path d="M3220 4573 c0 -13 5 -23 10 -23 13 0 13 11 0 30 -8 12 -10 11 -10 -7z"/>
<path d="M3187 4573 c-14 -13 -6 -33 12 -33 14 0 18 5 14 20 -5 21 -15 25 -26
13z"/>
<path d="M3256 4572 c-3 -5 1 -9 9 -9 8 0 15 4 15 9 0 4 -4 8 -9 8 -6 0 -12
-4 -15 -8z"/>
<path d="M2653 4563 c9 -2 25 -2 35 0 9 3 1 5 -18 5 -19 0 -27 -2 -17 -5z"/>
<path d="M2983 4563 c9 -2 25 -2 35 0 9 3 1 5 -18 5 -19 0 -27 -2 -17 -5z"/>
<path d="M2000 4540 c0 -5 5 -10 10 -10 6 0 10 5 10 10 0 6 -4 10 -10 10 -5 0
-10 -4 -10 -10z"/>
<path d="M3242 4524 c9 -9 21 -15 27 -13 6 2 -2 10 -17 17 -25 11 -25 11 -10
-4z"/>
<path d="M3178 4518 c5 -5 16 -8 23 -6 8 3 3 7 -10 11 -17 4 -21 3 -13 -5z"/>
<path d="M3308 4518 c5 -5 16 -8 23 -6 8 3 3 7 -10 11 -17 4 -21 3 -13 -5z"/>
<path d="M3378 4518 c5 -5 16 -8 23 -6 8 3 3 7 -10 11 -17 4 -21 3 -13 -5z"/>
<path d="M2059 4453 c-12 -16 -12 -17 1 -7 8 6 22 14 30 17 13 5 12 6 -1 6 -9
1 -23 -7 -30 -16z"/>
<path d="M2127 4456 c-4 -10 -1 -16 8 -16 8 0 15 -4 15 -10 0 -18 -40 -11 -41
8 -1 11 -4 9 -9 -8 -6 -18 -8 -20 -9 -7 -1 23 -25 17 -30 -8 -3 -15 2 -17 29
-11 18 3 43 6 55 6 18 0 22 5 19 26 -3 28 -14 46 -14 23 0 -11 -2 -12 -9 -1
-7 11 -9 11 -14 -2z"/>
<path d="M3117 4463 c-3 -5 5 -8 18 -8 13 0 21 3 18 8 -2 4 -10 7 -18 7 -8 0
-16 -3 -18 -7z"/>
<path d="M3179 4453 c-12 -16 -12 -17 1 -7 8 6 22 14 30 17 13 5 12 6 -1 6 -9
1 -23 -7 -30 -16z"/>
<path d="M3245 4459 c-4 -6 -4 -13 -1 -16 3 -4 6 -1 6 6 0 8 8 11 20 8 11 -3
18 -1 14 4 -7 12 -31 11 -39 -2z"/>
<path d="M3302 4441 c-9 -17 -26 -32 -37 -34 -18 -4 -18 -4 2 -6 16 -1 27 8
38 29 19 37 45 40 45 6 0 -20 -4 -24 -22 -21 -16 3 -19 2 -10 -7 19 -19 44 -1
40 29 -4 40 -34 42 -56 4z"/>
<path d="M3379 4453 c-12 -16 -12 -17 1 -7 8 6 22 14 30 17 13 5 12 6 -1 6 -9
1 -23 -7 -30 -16z"/>
<path d="M3447 4456 c-4 -10 -1 -16 8 -16 8 0 15 -4 15 -10 0 -18 -40 -11 -41
8 -1 11 -4 9 -9 -8 -6 -18 -8 -20 -9 -7 -1 23 -25 17 -30 -8 -3 -15 2 -17 29
-11 18 3 43 6 55 6 18 0 22 5 19 26 -3 28 -14 46 -14 23 0 -11 -2 -12 -9 -1
-7 11 -9 11 -14 -2z"/>
<path d="M1993 4445 c0 -6 8 -11 17 -11 9 0 17 5 17 11 0 6 -8 11 -17 11 -9 0
-17 -5 -17 -11z"/>
<path d="M2186 4424 c3 -28 14 -46 14 -23 0 11 2 12 9 1 7 -11 9 -11 14 2 4
10 1 16 -8 16 -24 0 -17 18 8 23 17 3 14 5 -9 6 -28 1 -31 -2 -28 -25z"/>
<path d="M2590 4440 c-12 -8 -12 -10 -1 -10 11 0 11 -3 1 -14 -10 -13 -8 -13
14 -3 14 7 21 14 16 15 -6 2 -8 8 -4 13 7 12 -7 11 -26 -1z"/>
<path d="M2724 4436 c-8 -8 -7 -15 0 -22 8 -8 15 -7 22 0 8 8 7 15 0 22 -8 8
-15 7 -22 0z"/>
<path d="M2794 4436 c-8 -8 -7 -15 0 -22 8 -8 15 -7 22 0 8 8 7 15 0 22 -8 8
-15 7 -22 0z"/>
<path d="M2854 4436 c-8 -8 -7 -15 0 -22 8 -8 15 -7 22 0 8 8 7 15 0 22 -8 8
-15 7 -22 0z"/>
<path d="M2924 4436 c-8 -8 -7 -15 0 -22 8 -8 15 -7 22 0 8 8 7 15 0 22 -8 8
-15 7 -22 0z"/>
<path d="M3054 4436 c-8 -8 -7 -15 0 -22 8 -8 15 -7 22 0 8 8 7 15 0 22 -8 8
-15 7 -22 0z"/>
<path d="M3220 4433 c0 -13 5 -23 10 -23 13 0 13 11 0 30 -8 12 -10 11 -10 -7z"/>
<path d="M2523 4433 c9 -2 23 -2 30 0 6 3 -1 5 -18 5 -16 0 -22 -2 -12 -5z"/>
<path d="M3101 4424 c0 -11 3 -14 6 -6 3 7 2 16 -1 19 -3 4 -6 -2 -5 -13z"/>
<path d="M3120 4430 c0 -5 7 -7 15 -4 8 4 15 8 15 10 0 2 -7 4 -15 4 -8 0 -15
-4 -15 -10z"/>
<path d="M3187 4433 c-14 -13 -6 -33 12 -33 14 0 18 5 14 20 -5 21 -15 25 -26
13z"/>
<path d="M3256 4432 c-3 -5 1 -9 9 -9 8 0 15 4 15 9 0 4 -4 8 -9 8 -6 0 -12
-4 -15 -8z"/>
<path d="M2653 4423 c9 -2 25 -2 35 0 9 3 1 5 -18 5 -19 0 -27 -2 -17 -5z"/>
<path d="M2983 4423 c9 -2 25 -2 35 0 9 3 1 5 -18 5 -19 0 -27 -2 -17 -5z"/>
<path d="M3140 4413 c-24 -12 -24 -13 -3 -13 12 0 25 5 28 11 11 16 2 17 -25
2z"/>
<path d="M2523 4413 c9 -2 23 -2 30 0 6 3 -1 5 -18 5 -16 0 -22 -2 -12 -5z"/>
<path d="M3242 4384 c9 -9 21 -15 27 -13 6 2 -2 10 -17 17 -25 11 -25 11 -10
-4z"/>
<path d="M2058 4378 c5 -5 16 -8 23 -6 8 3 3 7 -10 11 -17 4 -21 3 -13 -5z"/>
<path d="M3178 4378 c5 -5 16 -8 23 -6 8 3 3 7 -10 11 -17 4 -21 3 -13 -5z"/>
<path d="M3308 4378 c5 -5 16 -8 23 -6 8 3 3 7 -10 11 -17 4 -21 3 -13 -5z"/>
<path d="M3378 4378 c5 -5 16 -8 23 -6 8 3 3 7 -10 11 -17 4 -21 3 -13 -5z"/>
<path d="M3118 4373 c6 -2 18 -2 25 0 6 3 1 5 -13 5 -14 0 -19 -2 -12 -5z"/>
<path d="M2069 4328 c-6 -20 -6 -39 0 -42 4 -3 7 6 7 20 0 20 -4 32 -7 22z"/>
<path d="M2399 4328 c-6 -20 -6 -39 0 -42 4 -3 7 6 7 20 0 20 -4 32 -7 22z"/>
<path d="M2457 4316 c-4 -10 -1 -16 8 -16 24 0 17 -18 -7 -23 -18 -3 -15 -5 8
-6 28 -1 31 2 28 25 -3 28 -14 46 -14 23 0 -11 -2 -12 -9 -1 -7 11 -9 11 -14
-2z"/>
<path d="M2519 4313 c-12 -16 -12 -17 1 -7 8 6 22 14 30 17 13 5 12 6 -1 6 -9
1 -23 -7 -30 -16z"/>
<path d="M2585 4319 c-4 -6 -4 -13 -1 -16 3 -4 6 -1 6 6 0 8 8 11 20 8 11 -3
18 -1 14 4 -7 12 -31 11 -39 -2z"/>
<path d="M2642 4301 c-9 -17 -26 -32 -37 -34 -18 -4 -18 -4 2 -6 16 -1 27 8
38 29 19 37 45 40 45 6 0 -20 -4 -24 -22 -21 -16 3 -19 2 -10 -7 19 -19 44 -1
40 29 -4 40 -34 42 -56 4z"/>
<path d="M2719 4313 c-12 -16 -12 -17 1 -7 8 6 22 14 30 17 13 5 12 6 -1 6 -9
1 -23 -7 -30 -16z"/>
<path d="M2787 4316 c-4 -10 -1 -16 8 -16 8 0 15 -4 15 -10 0 -18 -40 -11 -41
8 -1 11 -4 9 -9 -8 -6 -18 -8 -20 -9 -7 -1 23 -25 17 -30 -8 -3 -15 2 -17 29
-11 18 3 43 6 55 6 18 0 22 5 19 26 -3 28 -14 46 -14 23 0 -11 -2 -12 -9 -1
-7 11 -9 11 -14 -2z"/>
<path d="M3105 4320 c-9 -14 3 -30 22 -30 12 0 12 -3 -4 -17 -10 -10 -14 -14
-7 -10 7 4 15 3 19 -3 3 -5 12 -10 18 -9 9 0 9 2 0 6 -20 7 -15 26 5 19 16 -6
16 -5 0 7 -10 8 -15 17 -12 20 3 3 -3 3 -15 0 -22 -6 -30 12 -8 20 9 4 9 6 0
6 -6 1 -15 -3 -18 -9z"/>
<path d="M3179 4313 c-12 -16 -12 -17 1 -7 8 6 22 14 30 17 13 5 12 6 -1 6 -9
1 -23 -7 -30 -16z"/>
<path d="M3245 4319 c-4 -6 -4 -13 -1 -16 3 -4 6 -1 6 6 0 8 8 11 20 8 11 -3
18 -1 14 4 -7 12 -31 11 -39 -2z"/>
<path d="M3302 4301 c-9 -17 -26 -32 -37 -34 -18 -4 -18 -4 2 -6 16 -1 27 8
38 29 19 37 45 40 45 6 0 -20 -4 -24 -22 -21 -16 3 -19 2 -10 -7 19 -19 44 -1
40 29 -4 40 -34 42 -56 4z"/>
<path d="M3379 4313 c-12 -16 -12 -17 1 -7 8 6 22 14 30 17 13 5 12 6 -1 6 -9
1 -23 -7 -30 -16z"/>
<path d="M3447 4323 c-3 -5 5 -8 18 -8 13 0 21 3 18 8 -2 4 -10 7 -18 7 -8 0
-16 -3 -18 -7z"/>
<path d="M3519 4328 c-6 -20 -6 -39 0 -42 4 -3 7 6 7 20 0 20 -4 32 -7 22z"/>
<path d="M2186 4284 c3 -28 14 -46 14 -23 0 11 2 12 9 1 7 -11 9 -11 14 2 4
10 1 16 -8 16 -24 0 -17 18 8 23 17 3 14 5 -9 6 -28 1 -31 -2 -28 -25z"/>
<path d="M2560 4293 c0 -13 5 -23 10 -23 13 0 13 11 0 30 -8 12 -10 11 -10 -7z"/>
<path d="M2854 4296 c-8 -8 -7 -15 0 -22 8 -8 15 -7 22 0 8 8 7 15 0 22 -8 8
-15 7 -22 0z"/>
<path d="M2924 4296 c-8 -8 -7 -15 0 -22 8 -8 15 -7 22 0 8 8 7 15 0 22 -8 8
-15 7 -22 0z"/>
<path d="M3054 4296 c-8 -8 -7 -15 0 -22 8 -8 15 -7 22 0 8 8 7 15 0 22 -8 8
-15 7 -22 0z"/>
<path d="M3220 4293 c0 -13 5 -23 10 -23 13 0 13 11 0 30 -8 12 -10 11 -10 -7z"/>
<path d="M3420 4291 c0 -12 5 -21 10 -21 6 0 10 6 10 14 0 8 -4 18 -10 21 -5
3 -10 -3 -10 -14z"/>
<path d="M2527 4293 c-14 -13 -6 -33 12 -33 14 0 18 5 14 20 -5 21 -15 25 -26
13z"/>
<path d="M2596 4292 c-3 -5 1 -9 9 -9 8 0 15 4 15 9 0 4 -4 8 -9 8 -6 0 -12
-4 -15 -8z"/>
<path d="M3187 4293 c-14 -13 -6 -33 12 -33 14 0 18 5 14 20 -5 21 -15 25 -26
13z"/>
<path d="M3256 4292 c-3 -5 1 -9 9 -9 8 0 15 4 15 9 0 4 -4 8 -9 8 -6 0 -12
-4 -15 -8z"/>
<path d="M3387 4293 c-14 -13 -6 -33 12 -33 14 0 18 5 14 20 -5 21 -15 25 -26
13z"/>
<path d="M3450 4290 c0 -5 7 -7 15 -4 8 4 15 8 15 10 0 2 -7 4 -15 4 -8 0 -15
-4 -15 -10z"/>
<path d="M1998 4283 c7 -3 16 -2 19 1 4 3 -2 6 -13 5 -11 0 -14 -3 -6 -6z"/>
<path d="M2268 4283 c7 -3 16 -2 19 1 4 3 -2 6 -13 5 -11 0 -14 -3 -6 -6z"/>
<path d="M2328 4283 c7 -3 16 -2 19 1 4 3 -2 6 -13 5 -11 0 -14 -3 -6 -6z"/>
<path d="M2983 4283 c9 -2 25 -2 35 0 9 3 1 5 -18 5 -19 0 -27 -2 -17 -5z"/>
<path d="M3465 4270 c-19 -8 -19 -9 3 -9 12 -1 22 4 22 9 0 6 -1 10 -2 9 -2 0
-12 -4 -23 -9z"/>
<path d="M2582 4244 c9 -9 21 -15 27 -13 6 2 -2 10 -17 17 -25 11 -25 11 -10
-4z"/>
<path d="M3242 4244 c9 -9 21 -15 27 -13 6 2 -2 10 -17 17 -25 11 -25 11 -10
-4z"/>
<path d="M2518 4238 c5 -5 16 -8 23 -6 8 3 3 7 -10 11 -17 4 -21 3 -13 -5z"/>
<path d="M2648 4238 c5 -5 16 -8 23 -6 8 3 3 7 -10 11 -17 4 -21 3 -13 -5z"/>
<path d="M2718 4238 c5 -5 16 -8 23 -6 8 3 3 7 -10 11 -17 4 -21 3 -13 -5z"/>
<path d="M3178 4238 c5 -5 16 -8 23 -6 8 3 3 7 -10 11 -17 4 -21 3 -13 -5z"/>
<path d="M3308 4238 c5 -5 16 -8 23 -6 8 3 3 7 -10 11 -17 4 -21 3 -13 -5z"/>
<path d="M3378 4238 c5 -5 16 -8 23 -6 8 3 3 7 -10 11 -17 4 -21 3 -13 -5z"/>
<path d="M3448 4233 c6 -2 18 -2 25 0 6 3 1 5 -13 5 -14 0 -19 -2 -12 -5z"/>
<path d="M2314 4175 c-5 -11 -1 -21 9 -27 10 -5 17 -16 17 -23 0 -8 4 -15 9
-15 17 0 23 20 11 35 -10 12 -10 19 1 33 12 15 12 16 -2 5 -12 -9 -18 -10 -27
-1 -8 8 -13 7 -18 -7z"/>
<path d="M2389 4173 c-12 -16 -12 -17 1 -7 8 6 22 14 30 17 13 5 12 6 -1 6 -9
1 -23 -7 -30 -16z"/>
<path d="M2457 4183 c-3 -5 5 -8 18 -8 13 0 21 3 18 8 -2 4 -10 7 -18 7 -8 0
-16 -3 -18 -7z"/>
<path d="M2590 4183 c0 -23 2 -28 11 -25 5 1 9 -2 9 -8 0 -5 -10 -10 -22 -11
-22 -1 -22 -1 2 -8 14 -5 28 -6 31 -5 9 5 4 39 -5 41 -5 1 -13 7 -17 15 -7 10
-9 10 -9 1z"/>
<path d="M2652 4178 c-6 -6 -12 -17 -12 -22 0 -6 5 -3 11 7 15 25 39 21 39 -7
0 -20 -4 -24 -22 -21 -16 3 -19 2 -10 -7 19 -19 44 -1 40 29 -3 30 -26 41 -46
21z"/>
<path d="M2719 4173 c-12 -16 -12 -17 1 -7 8 6 22 14 30 17 13 5 12 6 -1 6 -9
1 -23 -7 -30 -16z"/>
<path d="M2787 4183 c-3 -5 5 -8 18 -8 13 0 21 3 18 8 -2 4 -10 7 -18 7 -8 0
-16 -3 -18 -7z"/>
<path d="M2849 4173 c-12 -16 -12 -17 1 -7 8 6 22 14 30 17 13 5 12 6 -1 6 -9
1 -23 -7 -30 -16z"/>
<path d="M3040 4179 c0 -5 5 -7 10 -4 6 3 10 2 10 -4 0 -5 -6 -12 -12 -14 -10
-4 -10 -6 0 -6 7 -1 11 -5 7 -10 -3 -6 4 -8 15 -6 22 4 28 -10 8 -19 -7 -2 -3
-4 9 -2 12 1 26 5 29 9 4 4 13 2 21 -5 7 -6 16 -8 20 -4 3 3 1 6 -5 6 -7 0
-12 5 -12 11 0 6 8 8 18 5 16 -6 16 -5 0 7 -10 8 -15 17 -12 20 3 3 -3 3 -15
0 -22 -6 -30 12 -8 21 6 2 3 4 -8 3 -11 -2 -25 -6 -32 -10 -6 -4 -14 -3 -18 3
-8 13 -25 13 -25 -1z m87 -29 c15 0 14 -2 -2 -13 -15 -12 -21 -12 -35 2 -12
11 -14 20 -7 29 9 11 12 10 19 -2 5 -9 16 -16 25 -16z"/>
<path d="M3179 4173 c-12 -16 -12 -17 1 -7 8 6 22 14 30 17 13 5 12 6 -1 6 -9
1 -23 -7 -30 -16z"/>
<path d="M3245 4179 c-4 -6 -4 -13 -1 -16 3 -4 6 -1 6 6 0 8 8 11 20 8 11 -3
18 -1 14 4 -7 12 -31 11 -39 -2z"/>
<path d="M3302 4161 c-9 -17 -26 -32 -37 -34 -18 -4 -18 -4 2 -6 16 -1 27 8
38 29 19 37 45 40 45 6 0 -20 -4 -24 -22 -21 -16 3 -19 2 -10 -7 19 -19 44 -1
40 29 -4 40 -34 42 -56 4z"/>
<path d="M3379 4173 c-12 -16 -12 -17 1 -7 8 6 22 14 30 17 13 5 12 6 -1 6 -9
1 -23 -7 -30 -16z"/>
<path d="M3447 4183 c-3 -5 5 -8 18 -8 13 0 21 3 18 8 -2 4 -10 7 -18 7 -8 0
-16 -3 -18 -7z"/>
<path d="M1993 4165 c0 -6 8 -11 17 -11 9 0 17 5 17 11 0 6 -8 11 -17 11 -9 0
-17 -5 -17 -11z"/>
<path d="M2194 4156 c-8 -8 -7 -15 0 -22 8 -8 15 -7 22 0 8 8 7 15 0 22 -8 8
-15 7 -22 0z"/>
<path d="M2430 4151 c0 -12 5 -21 10 -21 6 0 10 6 10 14 0 8 -4 18 -10 21 -5
3 -10 -3 -10 -14z"/>
<path d="M2516 4144 c3 -28 14 -46 14 -23 0 11 2 12 9 1 7 -11 9 -11 14 2 4
10 1 16 -8 16 -24 0 -17 18 8 23 17 3 14 5 -9 6 -28 1 -31 -2 -28 -25z"/>
<path d="M2760 4151 c0 -12 5 -21 10 -21 6 0 10 6 10 14 0 8 -4 18 -10 21 -5
3 -10 -3 -10 -14z"/>
<path d="M2890 4150 c-2 -18 -4 -20 -7 -7 -6 22 -27 17 -31 -6 -2 -12 3 -17
18 -17 22 0 35 21 27 42 -3 7 -6 2 -7 -12z"/>
<path d="M2924 4156 c-8 -8 -7 -15 0 -22 8 -8 15 -7 22 0 8 8 7 15 0 22 -8 8
-15 7 -22 0z"/>
<path d="M3220 4153 c0 -13 5 -23 10 -23 13 0 13 11 0 30 -8 12 -10 11 -10 -7z"/>
<path d="M3420 4151 c0 -12 5 -21 10 -21 6 0 10 6 10 14 0 8 -4 18 -10 21 -5
3 -10 -3 -10 -14z"/>
<path d="M3514 4156 c-8 -8 -7 -15 0 -22 8 -8 15 -7 22 0 8 8 7 15 0 22 -8 8
-15 7 -22 0z"/>
<path d="M2397 4153 c-14 -13 -6 -33 12 -33 14 0 18 5 14 20 -5 21 -15 25 -26
13z"/>
<path d="M2460 4150 c0 -5 7 -7 15 -4 8 4 15 8 15 10 0 2 -7 4 -15 4 -8 0 -15
-4 -15 -10z"/>
<path d="M2727 4153 c-14 -13 -6 -33 12 -33 14 0 18 5 14 20 -5 21 -15 25 -26
13z"/>
<path d="M2790 4150 c0 -5 7 -7 15 -4 8 4 15 8 15 10 0 2 -7 4 -15 4 -8 0 -15
-4 -15 -10z"/>
<path d="M3187 4153 c-14 -13 -6 -33 12 -33 14 0 18 5 14 20 -5 21 -15 25 -26
13z"/>
<path d="M3256 4152 c-3 -5 1 -9 9 -9 8 0 15 4 15 9 0 4 -4 8 -9 8 -6 0 -12
-4 -15 -8z"/>
<path d="M3387 4153 c-14 -13 -6 -33 12 -33 14 0 18 5 14 20 -5 21 -15 25 -26
13z"/>
<path d="M3450 4150 c0 -5 7 -7 15 -4 8 4 15 8 15 10 0 2 -7 4 -15 4 -8 0 -15
-4 -15 -10z"/>
<path d="M2810 4133 c-24 -12 -24 -13 -3 -13 12 0 25 5 28 11 11 16 2 17 -25
2z"/>
<path d="M2983 4143 c9 -2 25 -2 35 0 9 3 1 5 -18 5 -19 0 -27 -2 -17 -5z"/>
<path d="M2475 4130 c-19 -8 -19 -9 3 -9 12 -1 22 4 22 9 0 6 -1 10 -2 9 -2 0
-12 -4 -23 -9z"/>
<path d="M3465 4130 c-19 -8 -19 -9 3 -9 12 -1 22 4 22 9 0 6 -1 10 -2 9 -2 0
-12 -4 -23 -9z"/>
<path d="M3242 4104 c9 -9 21 -15 27 -13 6 2 -2 10 -17 17 -25 11 -25 11 -10
-4z"/>
<path d="M2388 4098 c5 -5 16 -8 23 -6 8 3 3 7 -10 11 -17 4 -21 3 -13 -5z"/>
<path d="M2648 4098 c5 -5 16 -8 23 -6 8 3 3 7 -10 11 -17 4 -21 3 -13 -5z"/>
<path d="M2718 4098 c5 -5 16 -8 23 -6 8 3 3 7 -10 11 -17 4 -21 3 -13 -5z"/>
<path d="M2848 4098 c5 -5 16 -8 23 -6 8 3 3 7 -10 11 -17 4 -21 3 -13 -5z"/>
<path d="M3178 4098 c5 -5 16 -8 23 -6 8 3 3 7 -10 11 -17 4 -21 3 -13 -5z"/>
<path d="M3308 4098 c5 -5 16 -8 23 -6 8 3 3 7 -10 11 -17 4 -21 3 -13 -5z"/>
<path d="M3378 4098 c5 -5 16 -8 23 -6 8 3 3 7 -10 11 -17 4 -21 3 -13 -5z"/>
<path d="M2458 4093 c6 -2 18 -2 25 0 6 3 1 5 -13 5 -14 0 -19 -2 -12 -5z"/>
<path d="M2788 4093 c6 -2 18 -2 25 0 6 3 1 5 -13 5 -14 0 -19 -2 -12 -5z"/>
<path d="M3448 4093 c6 -2 18 -2 25 0 6 3 1 5 -13 5 -14 0 -19 -2 -12 -5z"/>
<path d="M2260 4043 c0 -23 2 -28 11 -25 5 1 9 -2 9 -8 0 -5 -10 -10 -22 -11
-22 -1 -22 -1 2 -8 14 -5 28 -6 31 -5 9 5 4 39 -5 41 -5 1 -13 7 -17 15 -7 10
-9 10 -9 1z"/>
<path d="M2322 4038 c-6 -6 -12 -17 -12 -22 0 -6 5 -3 11 7 15 25 39 21 39 -7
0 -20 -4 -24 -22 -21 -16 3 -19 2 -10 -7 19 -19 44 -1 40 29 -3 30 -26 41 -46
21z"/>
<path d="M2389 4033 c-12 -16 -12 -17 1 -7 8 6 22 14 30 17 13 5 12 6 -1 6 -9
1 -23 -7 -30 -16z"/>
<path d="M2710 4039 c0 -5 5 -7 10 -4 6 3 10 2 10 -4 0 -5 -6 -12 -12 -14 -10
-4 -10 -6 0 -6 7 -1 11 -5 7 -10 -3 -6 4 -8 15 -6 22 4 28 -10 8 -18 -7 -3 -4
-5 7 -4 15 1 21 8 22 26 1 15 -1 21 -3 14 -3 -7 -12 -9 -20 -6 -13 5 -12 9 3
27 14 16 15 18 1 8 -11 -9 -18 -10 -23 -2 -8 13 -25 13 -25 -1z"/>
<path d="M2787 4043 c-3 -5 5 -8 18 -8 13 0 21 3 18 8 -2 4 -10 7 -18 7 -8 0
-16 -3 -18 -7z"/>
<path d="M2849 4033 c-12 -16 -12 -17 1 -7 8 6 22 14 30 17 13 5 12 6 -1 6 -9
1 -23 -7 -30 -16z"/>
<path d="M2920 4043 c0 -23 2 -28 11 -25 5 1 9 -2 9 -8 0 -18 -40 -11 -41 8
-1 11 -4 9 -9 -8 -6 -18 -8 -20 -9 -7 -1 22 -25 17 -29 -6 -3 -13 5 -15 50
-12 45 3 52 6 52 24 0 12 -3 21 -8 20 -5 0 -13 5 -17 13 -7 10 -9 10 -9 1z"/>
<path d="M2974 4035 c-5 -11 -1 -21 9 -27 10 -5 17 -16 17 -23 0 -8 4 -15 9
-15 17 0 23 20 11 35 -10 12 -10 19 1 33 12 15 12 16 -2 5 -12 -9 -18 -10 -27
-1 -8 8 -13 7 -18 -7z"/>
<path d="M3040 4039 c0 -5 5 -7 10 -4 6 3 10 2 10 -4 0 -5 -6 -12 -12 -14 -10
-4 -10 -6 0 -6 7 -1 11 -5 7 -10 -3 -6 4 -8 15 -6 22 4 28 -10 8 -19 -7 -2 -4
-4 7 -3 11 2 25 6 32 10 6 4 14 3 18 -3 3 -5 12 -10 18 -10 7 0 6 4 -3 10 -13
9 -13 11 0 20 11 7 11 10 2 10 -7 0 -11 4 -8 9 4 5 -3 7 -14 4 -22 -6 -28 12
-7 21 6 2 3 4 -8 3 -11 -2 -25 -6 -32 -10 -6 -4 -14 -3 -18 3 -8 13 -25 13
-25 -1z m87 -29 c15 0 14 -2 -2 -13 -15 -12 -21 -12 -35 2 -12 11 -14 20 -7
29 9 11 12 10 19 -2 5 -9 16 -16 25 -16z"/>
<path d="M3170 4039 c0 -5 5 -7 10 -4 6 3 10 2 10 -4 0 -5 -6 -12 -12 -14 -10
-4 -10 -6 0 -6 7 -1 11 -5 7 -10 -3 -6 4 -8 15 -6 19 4 28 -9 13 -18 -5 -2 -3
-2 4 -1 6 2 17 -4 23 -12 7 -8 20 -14 29 -14 10 0 7 5 -9 13 -15 8 -24 20 -22
30 2 10 -1 17 -5 16 -30 -5 -35 2 -17 23 13 16 14 19 2 10 -11 -9 -18 -10 -23
-2 -8 13 -25 13 -25 -1z"/>
<path d="M3245 4039 c-4 -6 -4 -13 -1 -16 3 -4 6 -1 6 6 0 8 8 11 20 8 11 -3
18 -1 14 4 -7 12 -31 11 -39 -2z"/>
<path d="M3302 4021 c-9 -17 -26 -32 -37 -34 -18 -4 -18 -4 2 -6 16 -1 27 8
38 29 19 37 45 40 45 6 0 -20 -4 -24 -22 -21 -16 3 -19 2 -10 -7 19 -19 44 -1
40 29 -4 40 -34 42 -56 4z"/>
<path d="M3379 4033 c-12 -16 -12 -17 1 -7 8 6 22 14 30 17 13 5 12 6 -1 6 -9
1 -23 -7 -30 -16z"/>
<path d="M3447 4043 c-3 -5 5 -8 18 -8 13 0 21 3 18 8 -2 4 -10 7 -18 7 -8 0
-16 -3 -18 -7z"/>
<path d="M3500 4039 c0 -5 5 -7 10 -4 6 3 10 2 10 -4 0 -5 -6 -12 -12 -14 -10
-4 -10 -6 0 -6 7 -1 11 -5 7 -10 -3 -6 4 -8 15 -6 22 4 28 -10 8 -18 -10 -4
-10 -6 -1 -6 20 -2 27 21 10 34 -15 11 -15 13 1 30 15 17 15 17 0 6 -11 -8
-18 -9 -23 -1 -8 13 -25 13 -25 -1z"/>
<path d="M1993 4025 c0 -6 8 -11 17 -11 9 0 17 5 17 11 0 6 -8 11 -17 11 -9 0
-17 -5 -17 -11z"/>
<path d="M2186 4004 c3 -28 14 -46 14 -23 0 11 2 12 9 1 7 -11 9 -11 14 2 4
10 1 16 -8 16 -24 0 -17 18 8 23 17 3 14 5 -9 6 -28 1 -31 -2 -28 -25z"/>
<path d="M2430 4010 c-2 -18 -4 -20 -7 -7 -6 22 -27 17 -31 -6 -2 -12 3 -17
18 -17 22 0 35 21 27 42 -3 7 -6 2 -7 -12z"/>
<path d="M2464 4016 c-8 -8 -7 -15 0 -22 8 -8 15 -7 22 0 8 8 7 15 0 22 -8 8
-15 7 -22 0z"/>
<path d="M3420 4011 c0 -12 5 -21 10 -21 6 0 10 6 10 14 0 8 -4 18 -10 21 -5
3 -10 -3 -10 -14z"/>
<path d="M2790 4010 c0 -5 7 -7 15 -4 8 4 15 8 15 10 0 2 -7 4 -15 4 -8 0 -15
-4 -15 -10z"/>
<path d="M3256 4012 c-3 -5 1 -9 9 -9 8 0 15 4 15 9 0 4 -4 8 -9 8 -6 0 -12
-4 -15 -8z"/>
<path d="M3387 4013 c-14 -13 -6 -33 12 -33 14 0 18 5 14 20 -5 21 -15 25 -26
13z"/>
<path d="M3450 4010 c0 -5 7 -7 15 -4 8 4 15 8 15 10 0 2 -7 4 -15 4 -8 0 -15
-4 -15 -10z"/>
<path d="M2528 4003 c7 -3 16 -2 19 1 4 3 -2 6 -13 5 -11 0 -14 -3 -6 -6z"/>
<path d="M2658 4003 c7 -3 16 -2 19 1 4 3 -2 6 -13 5 -11 0 -14 -3 -6 -6z"/>
<path d="M2810 3993 c-24 -12 -24 -13 -3 -13 12 0 25 5 28 11 11 16 2 17 -25
2z"/>
<path d="M3465 3990 c-19 -8 -19 -9 3 -9 12 -1 22 4 22 9 0 6 -1 10 -2 9 -2 0
-12 -4 -23 -9z"/>
<path d="M2318 3958 c5 -5 16 -8 23 -6 8 3 3 7 -10 11 -17 4 -21 3 -13 -5z"/>
<path d="M2388 3958 c5 -5 16 -8 23 -6 8 3 3 7 -10 11 -17 4 -21 3 -13 -5z"/>
<path d="M2848 3958 c5 -5 16 -8 23 -6 8 3 3 7 -10 11 -17 4 -21 3 -13 -5z"/>
<path d="M3308 3958 c5 -5 16 -8 23 -6 8 3 3 7 -10 11 -17 4 -21 3 -13 -5z"/>
<path d="M3378 3958 c5 -5 16 -8 23 -6 8 3 3 7 -10 11 -17 4 -21 3 -13 -5z"/>
<path d="M2788 3953 c6 -2 18 -2 25 0 6 3 1 5 -13 5 -14 0 -19 -2 -12 -5z"/>
<path d="M3448 3953 c6 -2 18 -2 25 0 6 3 1 5 -13 5 -14 0 -19 -2 -12 -5z"/>
<path d="M1984 3895 c-5 -11 -1 -21 9 -27 10 -5 17 -16 17 -23 0 -8 4 -15 9
-15 17 0 23 20 11 35 -10 12 -10 19 1 33 12 15 12 16 -2 5 -12 -9 -18 -10 -27
-1 -8 8 -13 7 -18 -7z"/>
<path d="M2260 3903 c0 -23 2 -28 11 -25 5 1 9 -2 9 -8 0 -5 -10 -10 -22 -11
-22 -1 -22 -1 2 -8 14 -5 28 -6 31 -5 9 5 4 39 -5 41 -5 1 -13 7 -17 15 -7 10
-9 10 -9 1z"/>
<path d="M2322 3898 c-6 -6 -12 -17 -12 -22 0 -6 5 -3 11 7 15 25 39 21 39 -7
0 -20 -4 -24 -22 -21 -16 3 -19 2 -10 -7 19 -19 44 -1 40 29 -3 30 -26 41 -46
21z"/>
<path d="M2787 3903 c-3 -5 5 -8 18 -8 13 0 21 3 18 8 -2 4 -10 7 -18 7 -8 0
-16 -3 -18 -7z"/>
<path d="M2849 3893 c-12 -16 -12 -17 1 -7 8 6 22 14 30 17 13 5 12 6 -1 6 -9
1 -23 -7 -30 -16z"/>
<path d="M2920 3903 c0 -23 2 -28 11 -25 5 1 9 -2 9 -8 0 -18 -40 -11 -41 8
-1 11 -4 9 -9 -8 -6 -18 -8 -20 -9 -7 -1 22 -25 17 -29 -6 -3 -13 5 -15 50
-12 45 3 52 6 52 24 0 12 -3 21 -8 20 -5 0 -13 5 -17 13 -7 10 -9 10 -9 1z"/>
<path d="M2974 3895 c-5 -11 -1 -21 9 -27 10 -5 17 -16 17 -23 0 -8 4 -15 9
-15 17 0 23 20 11 35 -10 12 -10 19 1 33 12 15 12 16 -2 5 -12 -9 -18 -10 -27
-1 -8 8 -13 7 -18 -7z"/>
<path d="M3040 3899 c0 -5 5 -7 10 -4 6 3 10 2 10 -4 0 -5 -6 -12 -12 -14 -10
-4 -10 -6 0 -6 7 -1 11 -5 7 -10 -3 -6 4 -8 15 -6 22 4 28 -10 8 -19 -7 -2 -3
-4 9 -2 12 1 26 5 29 9 4 4 13 2 21 -5 7 -6 16 -8 20 -4 3 3 1 6 -5 6 -7 0
-12 5 -12 10 0 15 16 12 34 -6 12 -12 16 -12 16 -2 0 11 2 11 9 0 7 -11 9 -11
14 2 4 10 1 16 -8 16 -24 0 -17 18 8 23 16 3 13 5 -10 6 -26 1 -31 -2 -26 -16
5 -13 2 -15 -11 -10 -10 4 -20 7 -22 7 -3 0 -3 4 0 9 4 5 -3 7 -14 4 -22 -6
-28 12 -7 21 6 2 3 4 -8 3 -11 -2 -25 -6 -32 -10 -6 -4 -14 -3 -18 3 -8 13
-25 13 -25 -1z m87 -29 c15 0 14 -2 -2 -13 -15 -12 -21 -12 -35 2 -12 11 -14
20 -7 29 9 11 12 10 19 -2 5 -9 16 -16 25 -16z"/>
<path d="M3389 3908 c-6 -20 -6 -39 0 -42 4 -3 7 6 7 20 0 20 -4 32 -7 22z"/>
<path d="M3435 3900 c-9 -14 3 -30 22 -30 12 0 12 -3 -4 -17 -10 -10 -14 -14
-7 -10 7 4 15 3 19 -3 3 -5 12 -10 18 -10 7 0 6 4 -3 10 -13 9 -13 11 0 20 11
7 11 10 2 10 -7 0 -11 4 -8 9 4 5 -3 7 -14 4 -22 -6 -28 12 -7 20 9 4 9 6 0 6
-6 1 -15 -3 -18 -9z"/>
<path d="M3519 3908 c-6 -20 -6 -39 0 -42 4 -3 7 6 7 20 0 20 -4 32 -7 22z"/>
<path d="M2186 3864 c3 -28 14 -46 14 -23 0 11 2 12 9 1 7 -11 9 -11 14 2 4
10 1 16 -8 16 -24 0 -17 18 8 23 17 3 14 5 -9 6 -28 1 -31 -2 -28 -25z"/>
<path d="M3250 3880 c-12 -8 -12 -10 -1 -10 11 0 11 -3 1 -14 -10 -13 -8 -13
14 -3 14 7 21 14 16 15 -6 2 -8 8 -4 13 7 12 -7 11 -26 -1z"/>
<path d="M2771 3864 c0 -11 3 -14 6 -6 3 7 2 16 -1 19 -3 4 -6 -2 -5 -13z"/>
<path d="M2790 3870 c0 -5 7 -7 15 -4 8 4 15 8 15 10 0 2 -7 4 -15 4 -8 0 -15
-4 -15 -10z"/>
<path d="M2138 3863 c7 -3 16 -2 19 1 4 3 -2 6 -13 5 -11 0 -14 -3 -6 -6z"/>
<path d="M2398 3863 c7 -3 16 -2 19 1 4 3 -2 6 -13 5 -11 0 -14 -3 -6 -6z"/>
<path d="M2728 3863 c7 -3 16 -2 19 1 4 3 -2 6 -13 5 -11 0 -14 -3 -6 -6z"/>
<path d="M2810 3853 c-24 -12 -24 -13 -3 -13 12 0 25 5 28 11 11 16 2 17 -25
2z"/>
<path d="M2318 3818 c5 -5 16 -8 23 -6 8 3 3 7 -10 11 -17 4 -21 3 -13 -5z"/>
<path d="M2848 3818 c5 -5 16 -8 23 -6 8 3 3 7 -10 11 -17 4 -21 3 -13 -5z"/>
<path d="M2788 3813 c6 -2 18 -2 25 0 6 3 1 5 -13 5 -14 0 -19 -2 -12 -5z"/>
<path d="M1984 3755 c-5 -11 -1 -21 9 -27 10 -5 17 -16 17 -23 0 -8 4 -15 9
-15 17 0 23 20 11 35 -10 12 -10 19 1 33 12 15 12 16 -2 5 -12 -9 -18 -10 -27
-1 -8 8 -13 7 -18 -7z"/>
<path d="M2180 3759 c0 -5 5 -7 10 -4 6 3 10 2 10 -4 0 -5 -6 -12 -12 -14 -10
-4 -10 -6 0 -6 7 -1 11 -5 7 -10 -3 -6 4 -8 15 -6 11 2 20 0 20 -6 0 -5 -5 -9
-12 -9 -6 0 -8 -3 -5 -6 4 -4 13 -1 21 5 8 7 25 11 38 9 18 -2 22 2 22 22 0
14 -6 24 -12 23 -7 -2 -12 3 -12 10 0 8 -3 7 -9 -3 -11 -16 -4 -33 10 -25 5 4
9 1 9 -4 0 -12 -29 -14 -55 -5 -14 6 -14 8 2 28 14 16 15 18 1 8 -11 -9 -18
-10 -23 -2 -8 13 -25 13 -25 -1z"/>
<path d="M2350 3761 c0 -5 -10 -12 -22 -14 -17 -3 -14 -5 9 -6 25 -1 31 2 27
14 -7 17 -14 20 -14 6z"/>
<path d="M2729 3768 c-6 -20 -6 -39 0 -42 4 -3 7 6 7 20 0 20 -4 32 -7 22z"/>
<path d="M2787 3763 c-3 -5 5 -8 18 -8 13 0 21 3 18 8 -2 4 -10 7 -18 7 -8 0
-16 -3 -18 -7z"/>
<path d="M2849 3753 c-12 -16 -12 -17 1 -7 8 6 22 14 30 17 13 5 12 6 -1 6 -9
1 -23 -7 -30 -16z"/>
<path d="M2915 3759 c-4 -6 -4 -13 -1 -16 3 -4 6 -1 6 6 0 8 8 11 20 8 11 -3
18 -1 14 4 -7 12 -31 11 -39 -2z"/>
<path d="M3010 3761 c0 -5 -10 -12 -22 -14 -17 -3 -14 -5 9 -6 25 -1 31 2 27
14 -7 17 -14 20 -14 6z"/>
<path d="M3040 3759 c0 -5 5 -7 10 -4 6 3 10 2 10 -4 0 -5 -6 -12 -12 -14 -10
-4 -10 -6 0 -6 7 -1 11 -5 7 -10 -3 -6 4 -8 15 -6 22 4 28 -10 8 -19 -7 -2 -4
-4 7 -3 11 2 25 6 32 10 6 4 14 3 18 -3 3 -5 12 -10 18 -10 7 0 6 4 -3 10 -13
9 -13 11 0 20 11 7 11 10 2 10 -7 0 -11 4 -8 9 4 5 -3 7 -14 4 -22 -6 -28 12
-7 21 6 2 3 4 -8 3 -11 -2 -25 -6 -32 -10 -6 -4 -14 -3 -18 3 -8 13 -25 13
-25 -1z m87 -29 c15 0 14 -2 -2 -13 -15 -12 -21 -12 -35 2 -12 11 -14 20 -7
29 9 11 12 10 19 -2 5 -9 16 -16 25 -16z"/>
<path d="M3170 3759 c0 -5 5 -7 10 -4 6 3 10 2 10 -4 0 -5 -6 -12 -12 -14 -10
-4 -10 -6 0 -6 7 -1 11 -5 7 -10 -3 -6 4 -8 15 -6 22 4 28 -10 8 -18 -10 -4
-10 -6 -1 -6 20 -2 27 21 10 34 -15 11 -15 13 1 30 15 17 15 17 0 6 -11 -8
-18 -9 -23 -1 -8 13 -25 13 -25 -1z"/>
<path d="M2134 3736 c-8 -8 -7 -15 0 -22 8 -8 15 -7 22 0 8 8 7 15 0 22 -8 8
-15 7 -22 0z"/>
<path d="M2890 3733 c0 -13 5 -23 10 -23 13 0 13 11 0 30 -8 12 -10 11 -10 -7z"/>
<path d="M2771 3724 c0 -11 3 -14 6 -6 3 7 2 16 -1 19 -3 4 -6 -2 -5 -13z"/>
<path d="M2790 3730 c0 -5 7 -7 15 -4 8 4 15 8 15 10 0 2 -7 4 -15 4 -8 0 -15
-4 -15 -10z"/>
<path d="M2857 3733 c-14 -13 -6 -33 12 -33 14 0 18 5 14 20 -5 21 -15 25 -26
13z"/>
<path d="M2926 3732 c-3 -5 1 -9 9 -9 8 0 15 4 15 9 0 4 -4 8 -9 8 -6 0 -12
-4 -15 -8z"/>
<path d="M2316 3721 c-3 -4 -1 -13 5 -21 7 -13 9 -13 9 0 0 12 2 12 9 2 7 -11
9 -11 14 1 6 15 -29 32 -37 18z"/>
<path d="M2810 3713 c-24 -12 -24 -13 -3 -13 12 0 25 5 28 11 11 16 2 17 -25
2z"/>
<path d="M2976 3721 c-3 -4 -1 -13 5 -21 7 -13 9 -13 9 0 0 12 2 12 9 2 7 -11
9 -11 14 1 6 15 -29 32 -37 18z"/>
<path d="M2928 3703 c6 -2 18 -2 25 0 6 3 1 5 -13 5 -14 0 -19 -2 -12 -5z"/>
<path d="M2912 3684 c9 -9 21 -15 27 -13 6 2 -2 10 -17 17 -25 11 -25 11 -10
-4z"/>
<path d="M2848 3678 c5 -5 16 -8 23 -6 8 3 3 7 -10 11 -17 4 -21 3 -13 -5z"/>
<path d="M2788 3673 c6 -2 18 -2 25 0 6 3 1 5 -13 5 -14 0 -19 -2 -12 -5z"/>
<path d="M2115 3620 c-3 -5 -19 -10 -34 -10 -24 0 -28 -4 -25 -26 3 -28 14
-46 14 -23 0 11 2 12 9 1 7 -11 9 -11 14 2 4 10 1 16 -8 16 -8 0 -15 5 -15 10
0 11 24 13 57 4 21 -6 22 -7 5 -23 -10 -9 -13 -12 -6 -8 7 4 15 3 19 -3 3 -5
12 -10 18 -10 7 0 6 4 -3 10 -13 9 -13 11 0 20 11 7 11 10 2 10 -7 0 -11 4 -8
9 4 5 -3 7 -14 4 -22 -6 -28 12 -7 20 9 4 9 6 0 6 -6 1 -15 -3 -18 -9z"/>
<path d="M2260 3623 c0 -23 2 -28 11 -25 5 1 9 -2 9 -8 0 -5 -10 -10 -22 -11
-22 -1 -22 -1 2 -8 14 -5 28 -6 31 -5 9 5 4 39 -5 41 -5 1 -13 7 -17 15 -7 10
-9 10 -9 1z"/>
<path d="M2322 3618 c-6 -6 -12 -17 -12 -22 0 -6 5 -3 11 7 15 25 39 21 39 -7
0 -20 -4 -24 -22 -21 -16 3 -19 2 -10 -7 19 -19 44 -1 40 29 -3 30 -26 41 -46
21z"/>
<path d="M2710 3619 c0 -5 5 -7 10 -4 6 3 10 2 10 -4 0 -5 -6 -12 -12 -14 -10
-4 -10 -6 0 -6 7 -1 11 -5 7 -10 -3 -6 4 -8 15 -6 22 4 28 -10 8 -18 -7 -3 -4
-5 7 -4 15 1 21 8 22 26 1 15 -1 21 -3 14 -3 -7 -12 -9 -20 -6 -13 5 -12 9 3
27 14 16 15 18 1 8 -11 -9 -18 -10 -23 -2 -8 13 -25 13 -25 -1z"/>
<path d="M2787 3623 c-3 -5 5 -8 18 -8 13 0 21 3 18 8 -2 4 -10 7 -18 7 -8 0
-16 -3 -18 -7z"/>
<path d="M2920 3623 c0 -23 2 -28 11 -25 5 1 9 -2 9 -8 0 -5 -10 -10 -22 -11
-22 -1 -22 -1 2 -8 14 -5 28 -6 31 -5 9 5 4 39 -5 41 -5 1 -13 7 -17 15 -7 10
-9 10 -9 1z"/>
<path d="M2982 3618 c-6 -6 -12 -17 -12 -22 0 -6 5 -3 11 7 15 25 39 21 39 -7
0 -20 -4 -24 -22 -21 -16 3 -19 2 -10 -7 19 -19 44 -1 40 29 -3 30 -26 41 -46
21z"/>
<path d="M3049 3613 c-12 -16 -12 -17 1 -7 8 6 22 14 30 17 13 5 12 6 -1 6 -9
1 -23 -7 -30 -16z"/>
<path d="M3117 3616 c-4 -10 -1 -16 8 -16 8 0 15 -4 15 -10 0 -18 -40 -11 -41
8 -1 11 -4 9 -9 -8 -6 -18 -8 -20 -9 -7 -1 23 -25 17 -30 -8 -3 -15 2 -17 29
-11 18 3 43 6 55 6 18 0 22 5 19 26 -3 28 -14 46 -14 23 0 -11 -2 -12 -9 -1
-7 11 -9 11 -14 -2z"/>
<path d="M3189 3628 c-6 -20 -6 -39 0 -42 4 -3 7 6 7 20 0 20 -4 32 -7 22z"/>
<path d="M3264 3605 c0 -13 3 -22 7 -19 8 4 6 30 -2 38 -3 3 -5 -5 -5 -19z"/>
<path d="M2194 3596 c-8 -8 -7 -15 0 -22 8 -8 15 -7 22 0 8 8 7 15 0 22 -8 8
-15 7 -22 0z"/>
<path d="M2846 3584 c3 -28 14 -46 14 -23 0 11 2 12 9 1 7 -11 9 -11 14 2 4
10 1 16 -8 16 -24 0 -17 18 8 23 17 3 14 5 -9 6 -28 1 -31 -2 -28 -25z"/>
<path d="M3384 3596 c-8 -8 -7 -15 0 -22 8 -8 15 -7 22 0 8 8 7 15 0 22 -8 8
-15 7 -22 0z"/>
<path d="M3454 3596 c-8 -8 -7 -15 0 -22 8 -8 15 -7 22 0 8 8 7 15 0 22 -8 8
-15 7 -22 0z"/>
<path d="M2790 3590 c0 -5 7 -7 15 -4 8 4 15 8 15 10 0 2 -7 4 -15 4 -8 0 -15
-4 -15 -10z"/>
<path d="M2398 3583 c7 -3 16 -2 19 1 4 3 -2 6 -13 5 -11 0 -14 -3 -6 -6z"/>
<path d="M3313 3583 c9 -2 25 -2 35 0 9 3 1 5 -18 5 -19 0 -27 -2 -17 -5z"/>
<path d="M3518 3583 c7 -3 16 -2 19 1 4 3 -2 6 -13 5 -11 0 -14 -3 -6 -6z"/>
<path d="M2805 3570 c-19 -8 -19 -9 3 -9 12 -1 22 4 22 9 0 6 -1 10 -2 9 -2 0
-12 -4 -23 -9z"/>
<path d="M2000 3560 c0 -5 5 -10 10 -10 6 0 10 5 10 10 0 6 -4 10 -10 10 -5 0
-10 -4 -10 -10z"/>
<path d="M2318 3538 c5 -5 16 -8 23 -6 8 3 3 7 -10 11 -17 4 -21 3 -13 -5z"/>
<path d="M2978 3538 c5 -5 16 -8 23 -6 8 3 3 7 -10 11 -17 4 -21 3 -13 -5z"/>
<path d="M3048 3538 c5 -5 16 -8 23 -6 8 3 3 7 -10 11 -17 4 -21 3 -13 -5z"/>
<path d="M2788 3533 c6 -2 18 -2 25 0 6 3 1 5 -13 5 -14 0 -19 -2 -12 -5z"/>
<path d="M2322 3478 c-6 -6 -12 -17 -12 -22 0 -6 5 -3 11 7 15 25 39 21 39 -7
0 -20 -4 -24 -22 -21 -16 3 -19 2 -10 -7 19 -19 44 -1 40 29 -3 30 -26 41 -46
21z"/>
<path d="M2719 3473 c-12 -16 -12 -17 1 -7 8 6 22 14 30 17 13 5 12 6 -1 6 -9
1 -23 -7 -30 -16z"/>
<path d="M2787 3483 c-3 -5 5 -8 18 -8 13 0 21 3 18 8 -2 4 -10 7 -18 7 -8 0
-16 -3 -18 -7z"/>
<path d="M2840 3479 c0 -5 5 -7 10 -4 6 3 10 2 10 -4 0 -5 -6 -12 -12 -14 -10
-4 -10 -6 0 -6 7 -1 11 -5 7 -10 -3 -6 4 -8 15 -6 22 4 28 -10 8 -18 -10 -4
-10 -6 -1 -6 20 -2 27 21 10 34 -15 11 -15 13 1 30 15 17 15 17 0 6 -11 -8
-18 -9 -23 -1 -8 13 -25 13 -25 -1z"/>
<path d="M2974 3475 c-5 -11 -1 -21 9 -27 10 -5 17 -16 17 -23 0 -8 4 -15 9
-15 17 0 23 20 11 35 -10 12 -10 19 1 33 12 15 12 16 -2 5 -12 -9 -18 -10 -27
-1 -8 8 -13 7 -18 -7z"/>
<path d="M3117 3476 c-4 -10 -1 -16 8 -16 24 0 17 -18 -7 -23 -18 -3 -15 -5 8
-6 28 -1 31 2 28 25 -3 28 -14 46 -14 23 0 -11 -2 -12 -9 -1 -7 11 -9 11 -14
-2z"/>
<path d="M3170 3479 c0 -5 5 -7 10 -4 6 3 10 2 10 -4 0 -5 -6 -12 -12 -14 -10
-4 -10 -6 0 -6 7 -1 11 -5 7 -10 -3 -6 4 -8 15 -6 22 4 28 -10 8 -18 -10 -4
-10 -6 -1 -6 20 -2 27 21 10 34 -15 11 -15 13 1 30 15 17 15 17 0 6 -11 -8
-18 -9 -23 -1 -8 13 -25 13 -25 -1z"/>
<path d="M2134 3456 c-8 -8 -7 -15 0 -22 8 -8 15 -7 22 0 8 8 7 15 0 22 -8 8
-15 7 -22 0z"/>
<path d="M2194 3456 c-8 -8 -7 -15 0 -22 8 -8 15 -7 22 0 8 8 7 15 0 22 -8 8
-15 7 -22 0z"/>
<path d="M2260 3460 c-12 -8 -12 -10 -1 -10 11 0 11 -3 0 -17 -13 -15 -12 -15
8 -2 12 7 26 10 30 6 4 -5 1 -12 -7 -17 -9 -6 -10 -10 -3 -10 20 0 27 22 10
35 -9 7 -14 15 -10 18 10 11 -10 8 -27 -3z"/>
<path d="M2386 3444 c3 -28 14 -46 14 -23 0 11 2 12 9 1 7 -11 9 -11 14 2 4
10 1 16 -8 16 -24 0 -17 18 8 23 17 3 14 5 -9 6 -28 1 -31 -2 -28 -25z"/>
<path d="M2760 3451 c0 -12 5 -21 10 -21 6 0 10 6 10 14 0 8 -4 18 -10 21 -5
3 -10 -3 -10 -14z"/>
<path d="M2920 3460 c-12 -8 -12 -10 -1 -10 11 0 11 -3 1 -14 -10 -13 -8 -13
14 -3 14 7 21 14 16 15 -6 2 -8 8 -4 13 7 12 -7 11 -26 -1z"/>
<path d="M3046 3444 c3 -28 14 -46 14 -23 0 11 2 12 9 1 7 -11 9 -11 14 2 4
10 1 16 -8 16 -24 0 -17 18 8 23 17 3 14 5 -9 6 -28 1 -31 -2 -28 -25z"/>
<path d="M3254 3456 c-8 -8 -7 -15 0 -22 8 -8 15 -7 22 0 8 8 7 15 0 22 -8 8
-15 7 -22 0z"/>
<path d="M3384 3456 c-8 -8 -7 -15 0 -22 8 -8 15 -7 22 0 8 8 7 15 0 22 -8 8
-15 7 -22 0z"/>
<path d="M3454 3456 c-8 -8 -7 -15 0 -22 8 -8 15 -7 22 0 8 8 7 15 0 22 -8 8
-15 7 -22 0z"/>
<path d="M3514 3456 c-8 -8 -7 -15 0 -22 8 -8 15 -7 22 0 8 8 7 15 0 22 -8 8
-15 7 -22 0z"/>
<path d="M2727 3453 c-14 -13 -6 -33 12 -33 14 0 18 5 14 20 -5 21 -15 25 -26
13z"/>
<path d="M2790 3450 c0 -5 7 -7 15 -4 8 4 15 8 15 10 0 2 -7 4 -15 4 -8 0 -15
-4 -15 -10z"/>
<path d="M2468 3443 c7 -3 16 -2 19 1 4 3 -2 6 -13 5 -11 0 -14 -3 -6 -6z"/>
<path d="M3313 3443 c9 -2 25 -2 35 0 9 3 1 5 -18 5 -19 0 -27 -2 -17 -5z"/>
<path d="M2805 3430 c-19 -8 -19 -9 3 -9 12 -1 22 4 22 9 0 6 -1 10 -2 9 -2 0
-12 -4 -23 -9z"/>
<path d="M2318 3398 c5 -5 16 -8 23 -6 8 3 3 7 -10 11 -17 4 -21 3 -13 -5z"/>
<path d="M2718 3398 c5 -5 16 -8 23 -6 8 3 3 7 -10 11 -17 4 -21 3 -13 -5z"/>
<path d="M2788 3393 c6 -2 18 -2 25 0 6 3 1 5 -13 5 -14 0 -19 -2 -12 -5z"/>
<path d="M2314 3335 c-5 -11 -1 -21 9 -27 10 -5 17 -16 17 -23 0 -8 4 -15 9
-15 17 0 23 20 11 35 -10 12 -10 19 1 33 12 15 12 16 -2 5 -12 -9 -18 -10 -27
-1 -8 8 -13 7 -18 -7z"/>
<path d="M2389 3333 c-12 -16 -12 -17 1 -7 8 6 22 14 30 17 13 5 12 6 -1 6 -9
1 -23 -7 -30 -16z"/>
<path d="M2457 3343 c-3 -5 5 -8 18 -8 13 0 21 3 18 8 -2 4 -10 7 -18 7 -8 0
-16 -3 -18 -7z"/>
<path d="M2590 3343 c0 -23 2 -28 11 -25 5 1 9 -2 9 -8 0 -5 -10 -10 -22 -11
-22 -1 -22 -1 2 -8 14 -5 28 -6 31 -5 9 5 4 39 -5 41 -5 1 -13 7 -17 15 -7 10
-9 10 -9 1z"/>
<path d="M2652 3338 c-6 -6 -12 -17 -12 -22 0 -6 5 -3 11 7 15 25 39 21 39 -7
0 -20 -4 -24 -22 -21 -16 3 -19 2 -10 -7 19 -19 44 -1 40 29 -3 30 -26 41 -46
21z"/>
<path d="M2719 3333 c-12 -16 -12 -17 1 -7 8 6 22 14 30 17 13 5 12 6 -1 6 -9
1 -23 -7 -30 -16z"/>
<path d="M2787 3336 c-4 -10 -1 -16 8 -16 8 0 15 -4 15 -10 0 -18 -40 -11 -41
8 -1 11 -4 9 -9 -8 -6 -18 -8 -20 -9 -7 -1 23 -25 17 -30 -8 -3 -15 2 -17 29
-11 18 3 43 6 55 6 18 0 22 5 19 26 -3 28 -14 46 -14 23 0 -11 -2 -12 -9 -1
-7 11 -9 11 -14 -2z"/>
<path d="M2840 3339 c0 -5 5 -7 10 -4 6 3 10 2 10 -4 0 -5 -6 -12 -12 -14 -10
-4 -10 -6 0 -6 7 -1 11 -5 7 -10 -3 -6 4 -8 15 -6 22 4 28 -10 8 -18 -10 -4
-10 -6 -1 -6 20 -2 27 21 10 34 -15 11 -15 13 1 30 15 17 15 17 0 6 -11 -8
-18 -9 -23 -1 -8 13 -25 13 -25 -1z"/>
<path d="M2974 3335 c-5 -11 -1 -21 9 -27 10 -5 17 -16 17 -23 0 -8 4 -15 9
-15 17 0 23 20 11 35 -10 12 -10 19 1 33 12 15 12 16 -2 5 -12 -9 -18 -10 -27
-1 -8 8 -13 7 -18 -7z"/>
<path d="M3040 3339 c0 -5 5 -7 10 -4 6 3 10 2 10 -4 0 -5 -6 -12 -12 -14 -10
-4 -10 -6 0 -6 7 -1 11 -5 7 -10 -3 -6 4 -8 15 -6 22 4 28 -10 8 -19 -7 -2 -3
-4 9 -2 12 1 26 5 29 9 4 4 13 2 21 -5 7 -6 16 -8 20 -4 3 3 1 6 -5 6 -7 0
-12 5 -12 10 0 15 16 12 34 -6 12 -12 16 -12 16 -2 0 11 2 11 9 0 7 -11 9 -11
14 2 4 10 1 16 -8 16 -24 0 -17 18 8 23 16 3 13 5 -10 6 -26 1 -31 -2 -26 -16
5 -13 2 -15 -11 -10 -10 4 -20 7 -22 7 -3 0 -3 4 0 9 4 5 -3 7 -14 4 -22 -6
-28 12 -7 21 6 2 3 4 -8 3 -11 -2 -25 -6 -32 -10 -6 -4 -14 -3 -18 3 -8 13
-25 13 -25 -1z m87 -29 c15 0 14 -2 -2 -13 -15 -12 -21 -12 -35 2 -12 11 -14
20 -7 29 9 11 12 10 19 -2 5 -9 16 -16 25 -16z"/>
<path d="M3304 3335 c-5 -11 -1 -21 9 -27 10 -5 17 -16 17 -23 0 -8 4 -15 9
-15 17 0 23 20 11 35 -10 12 -10 19 1 33 12 15 12 16 -2 5 -12 -9 -18 -10 -27
-1 -8 8 -13 7 -18 -7z"/>
<path d="M3435 3340 c-3 -5 -19 -10 -34 -10 -24 0 -28 -4 -25 -26 3 -28 14
-46 14 -23 0 11 2 12 9 1 7 -11 9 -11 14 2 4 10 1 16 -8 16 -8 0 -15 5 -15 10
0 11 24 13 57 4 21 -6 22 -7 5 -23 -10 -9 -13 -12 -6 -8 7 4 15 3 19 -3 3 -5
12 -10 18 -10 7 0 6 4 -3 10 -13 9 -13 11 0 20 11 7 11 10 2 10 -7 0 -11 4 -8
9 4 5 -3 7 -14 4 -22 -6 -28 12 -7 20 9 4 9 6 0 6 -6 1 -15 -3 -18 -9z"/>
<path d="M2064 3316 c-8 -8 -7 -15 0 -22 8 -8 15 -7 22 0 8 8 7 15 0 22 -8 8
-15 7 -22 0z"/>
<path d="M2134 3316 c-8 -8 -7 -15 0 -22 8 -8 15 -7 22 0 8 8 7 15 0 22 -8 8
-15 7 -22 0z"/>
<path d="M2194 3316 c-8 -8 -7 -15 0 -22 8 -8 15 -7 22 0 8 8 7 15 0 22 -8 8
-15 7 -22 0z"/>
<path d="M2260 3320 c-12 -8 -12 -10 -1 -10 11 0 11 -3 1 -14 -10 -13 -8 -13
14 -3 14 7 21 14 16 15 -6 2 -8 8 -4 13 7 12 -7 11 -26 -1z"/>
<path d="M2430 3311 c0 -12 5 -21 10 -21 6 0 10 6 10 14 0 8 -4 18 -10 21 -5
3 -10 -3 -10 -14z"/>
<path d="M2516 3304 c3 -28 14 -46 14 -23 0 11 2 12 9 1 7 -11 9 -11 14 2 4
10 1 16 -8 16 -24 0 -17 18 8 23 17 3 14 5 -9 6 -28 1 -31 -2 -28 -25z"/>
<path d="M2920 3320 c-12 -8 -12 -10 -1 -10 11 0 11 -3 1 -14 -10 -13 -8 -13
14 -3 14 7 21 14 16 15 -6 2 -8 8 -4 13 7 12 -7 11 -26 -1z"/>
<path d="M3250 3320 c-12 -8 -12 -10 -1 -10 11 0 11 -3 1 -14 -10 -13 -8 -13
14 -3 14 7 21 14 16 15 -6 2 -8 8 -4 13 7 12 -7 11 -26 -1z"/>
<path d="M3514 3316 c-8 -8 -7 -15 0 -22 8 -8 15 -7 22 0 8 8 7 15 0 22 -8 8
-15 7 -22 0z"/>
<path d="M2397 3313 c-14 -13 -6 -33 12 -33 14 0 18 5 14 20 -5 21 -15 25 -26
13z"/>
<path d="M2460 3310 c0 -5 7 -7 15 -4 8 4 15 8 15 10 0 2 -7 4 -15 4 -8 0 -15
-4 -15 -10z"/>
<path d="M2475 3290 c-19 -8 -19 -9 3 -9 12 -1 22 4 22 9 0 6 -1 10 -2 9 -2 0
-12 -4 -23 -9z"/>
<path d="M2388 3258 c5 -5 16 -8 23 -6 8 3 3 7 -10 11 -17 4 -21 3 -13 -5z"/>
<path d="M2648 3258 c5 -5 16 -8 23 -6 8 3 3 7 -10 11 -17 4 -21 3 -13 -5z"/>
<path d="M2718 3258 c5 -5 16 -8 23 -6 8 3 3 7 -10 11 -17 4 -21 3 -13 -5z"/>
<path d="M2458 3253 c6 -2 18 -2 25 0 6 3 1 5 -13 5 -14 0 -19 -2 -12 -5z"/>
<path d="M2314 3195 c-5 -11 -1 -21 9 -27 10 -5 17 -16 17 -23 0 -8 4 -15 9
-15 17 0 23 20 11 35 -10 12 -10 19 1 33 12 15 12 16 -2 5 -12 -9 -18 -10 -27
-1 -8 8 -13 7 -18 -7z"/>
<path d="M2380 3199 c0 -5 5 -7 10 -4 6 3 10 2 10 -4 0 -5 -6 -12 -12 -14 -10
-4 -10 -6 0 -6 7 -1 11 -5 7 -10 -3 -6 4 -8 15 -6 22 4 28 -10 8 -18 -10 -4
-10 -6 -1 -6 6 -1 15 4 18 9 3 6 19 10 34 10 24 0 28 4 25 26 -3 28 -14 46
-14 23 0 -11 -2 -12 -9 -1 -7 11 -9 11 -14 -2 -4 -10 -1 -16 8 -16 8 0 15 -4
15 -10 0 -11 -30 -13 -55 -4 -14 6 -14 8 2 28 14 16 15 18 1 8 -11 -9 -18 -10
-23 -2 -8 13 -25 13 -25 -1z"/>
<path d="M2519 3193 c-12 -16 -12 -17 1 -7 8 6 22 14 30 17 13 5 12 6 -1 6 -9
1 -23 -7 -30 -16z"/>
<path d="M2585 3199 c-4 -6 -4 -13 -1 -16 3 -4 6 -1 6 6 0 8 8 11 20 8 11 -3
18 -1 14 4 -7 12 -31 11 -39 -2z"/>
<path d="M2642 3181 c-9 -17 -26 -32 -37 -34 -18 -4 -18 -4 2 -6 16 -1 27 8
38 29 19 37 45 40 45 6 0 -20 -4 -24 -22 -21 -16 3 -19 2 -10 -7 19 -19 44 -1
40 29 -4 40 -34 42 -56 4z"/>
<path d="M2775 3200 c-3 -5 -19 -10 -34 -10 -24 0 -28 -4 -25 -26 3 -28 14
-46 14 -23 0 11 2 12 9 1 7 -11 9 -11 14 2 4 10 1 16 -8 16 -8 0 -15 5 -15 10
0 11 24 13 57 4 21 -6 22 -7 5 -23 -10 -9 -13 -12 -6 -8 7 4 15 3 19 -3 3 -5
12 -10 18 -10 7 0 6 4 -3 10 -13 9 -13 11 0 20 11 7 11 10 2 10 -7 0 -11 4 -8
9 4 5 -3 7 -14 4 -22 -6 -28 12 -7 20 9 4 9 6 0 6 -6 1 -15 -3 -18 -9z"/>
<path d="M2840 3199 c0 -5 5 -7 10 -4 6 3 10 2 10 -4 0 -5 -6 -12 -12 -14 -10
-4 -10 -6 0 -6 7 -1 11 -5 7 -10 -3 -6 4 -8 15 -6 22 4 28 -10 8 -18 -10 -4
-10 -6 -1 -6 20 -2 27 21 10 34 -15 11 -15 13 1 30 15 17 15 17 0 6 -11 -8
-18 -9 -23 -1 -8 13 -25 13 -25 -1z"/>
<path d="M2974 3195 c-5 -11 -1 -21 9 -27 10 -5 17 -16 17 -23 0 -8 4 -15 9
-15 17 0 23 20 11 35 -10 12 -10 19 1 33 12 15 12 16 -2 5 -12 -9 -18 -10 -27
-1 -8 8 -13 7 -18 -7z"/>
<path d="M3040 3199 c0 -5 5 -7 10 -4 6 3 10 2 10 -4 0 -5 -6 -12 -12 -14 -10
-4 -10 -6 0 -6 7 -1 11 -5 7 -10 -3 -6 4 -8 15 -6 22 4 28 -10 8 -19 -7 -2 -4
-4 7 -3 11 2 25 6 32 10 6 4 14 3 18 -3 3 -5 12 -10 18 -10 7 0 6 4 -3 10 -13
9 -13 11 0 20 11 7 11 10 2 10 -7 0 -11 4 -8 9 4 5 -3 7 -14 4 -22 -6 -28 12
-7 21 6 2 3 4 -8 3 -11 -2 -25 -6 -32 -10 -6 -4 -14 -3 -18 3 -8 13 -25 13
-25 -1z m87 -29 c15 0 14 -2 -2 -13 -15 -12 -21 -12 -35 2 -12 11 -14 20 -7
29 9 11 12 10 19 -2 5 -9 16 -16 25 -16z"/>
<path d="M3170 3199 c0 -5 5 -7 10 -4 6 3 10 2 10 -4 0 -5 -6 -12 -12 -14 -10
-4 -10 -6 0 -6 7 -1 11 -5 7 -10 -3 -6 4 -8 15 -6 22 4 28 -10 8 -18 -10 -4
-10 -6 -1 -6 20 -2 27 21 10 34 -15 11 -15 13 1 30 15 17 15 17 0 6 -11 -8
-18 -9 -23 -1 -8 13 -25 13 -25 -1z"/>
<path d="M3304 3195 c-5 -11 -1 -21 9 -27 10 -5 17 -16 17 -23 0 -8 4 -15 9
-15 17 0 23 20 11 35 -10 12 -10 19 1 33 12 15 12 16 -2 5 -12 -9 -18 -10 -27
-1 -8 8 -13 7 -18 -7z"/>
<path d="M3370 3199 c0 -5 5 -7 10 -4 6 3 10 2 10 -4 0 -5 -6 -12 -12 -14 -10
-4 -10 -6 0 -6 7 -1 11 -5 7 -10 -3 -6 4 -8 15 -6 22 4 28 -10 8 -19 -7 -2 -4
-4 7 -3 11 2 25 6 32 10 6 4 14 3 18 -3 3 -5 12 -10 18 -10 7 0 6 4 -3 10 -13
9 -13 11 0 20 11 7 11 10 2 10 -7 0 -11 4 -8 9 4 5 -3 7 -14 4 -22 -6 -28 12
-7 21 6 2 3 4 -8 3 -11 -2 -25 -6 -32 -10 -6 -4 -14 -3 -18 3 -8 13 -25 13
-25 -1z m87 -29 c15 0 14 -2 -2 -13 -15 -12 -21 -12 -35 2 -12 11 -14 20 -7
29 9 11 12 10 19 -2 5 -9 16 -16 25 -16z"/>
<path d="M3500 3199 c0 -5 5 -7 10 -4 6 3 10 2 10 -4 0 -5 -6 -12 -12 -14 -10
-4 -10 -6 0 -6 7 -1 11 -5 7 -10 -3 -6 4 -8 15 -6 22 4 28 -10 8 -18 -10 -4
-10 -6 -1 -6 20 -2 27 21 10 34 -15 11 -15 13 1 30 15 17 15 17 0 6 -11 -8
-18 -9 -23 -1 -8 13 -25 13 -25 -1z"/>
<path d="M2064 3176 c-8 -8 -7 -15 0 -22 8 -8 15 -7 22 0 8 8 7 15 0 22 -8 8
-15 7 -22 0z"/>
<path d="M2134 3176 c-8 -8 -7 -15 0 -22 8 -8 15 -7 22 0 8 8 7 15 0 22 -8 8
-15 7 -22 0z"/>
<path d="M2194 3176 c-8 -8 -7 -15 0 -22 8 -8 15 -7 22 0 8 8 7 15 0 22 -8 8
-15 7 -22 0z"/>
<path d="M2260 3180 c-12 -8 -12 -10 -1 -10 11 0 11 -3 1 -14 -10 -13 -8 -13
14 -3 14 7 21 14 16 15 -6 2 -8 8 -4 13 7 12 -7 11 -26 -1z"/>
<path d="M2560 3173 c0 -13 5 -23 10 -23 13 0 13 11 0 30 -8 12 -10 11 -10 -7z"/>
<path d="M2920 3180 c-12 -8 -12 -10 -1 -10 11 0 11 -3 1 -14 -10 -13 -8 -13
14 -3 14 7 21 14 16 15 -6 2 -8 8 -4 13 7 12 -7 11 -26 -1z"/>
<path d="M3250 3180 c-12 -8 -12 -10 -1 -10 11 0 11 -3 1 -14 -10 -13 -8 -13
14 -3 14 7 21 14 16 15 -6 2 -8 8 -4 13 7 12 -7 11 -26 -1z"/>
<path d="M3584 3176 c-8 -8 -7 -15 0 -22 8 -8 15 -7 22 0 8 8 7 15 0 22 -8 8
-15 7 -22 0z"/>
<path d="M2527 3173 c-14 -13 -6 -33 12 -33 14 0 18 5 14 20 -5 21 -15 25 -26
13z"/>
<path d="M2596 3172 c-3 -5 1 -9 9 -9 8 0 15 4 15 9 0 4 -4 8 -9 8 -6 0 -12
-4 -15 -8z"/>
<path d="M1998 3163 c7 -3 16 -2 19 1 4 3 -2 6 -13 5 -11 0 -14 -3 -6 -6z"/>
<path d="M2582 3124 c9 -9 21 -15 27 -13 6 2 -2 10 -17 17 -25 11 -25 11 -10
-4z"/>
<path d="M2518 3118 c5 -5 16 -8 23 -6 8 3 3 7 -10 11 -17 4 -21 3 -13 -5z"/>
<path d="M2648 3118 c5 -5 16 -8 23 -6 8 3 3 7 -10 11 -17 4 -21 3 -13 -5z"/>
<path d="M2314 3055 c-5 -11 -1 -21 9 -27 10 -5 17 -16 17 -23 0 -8 4 -15 9
-15 17 0 23 20 11 35 -10 12 -10 19 1 33 12 15 12 16 -2 5 -12 -9 -18 -10 -27
-1 -8 8 -13 7 -18 -7z"/>
<path d="M2380 3059 c0 -5 5 -7 10 -4 6 3 10 2 10 -4 0 -5 -6 -12 -12 -14 -10
-4 -10 -6 0 -6 7 -1 11 -5 7 -10 -3 -6 4 -8 15 -6 22 4 28 -10 8 -18 -10 -4
-10 -6 -1 -6 20 -2 27 21 10 34 -15 11 -15 13 1 30 15 17 15 17 0 6 -11 -8
-18 -9 -23 -1 -8 13 -25 13 -25 -1z"/>
<path d="M2644 3055 c-5 -11 -1 -21 9 -27 10 -5 17 -16 17 -23 0 -8 4 -15 9
-15 17 0 23 20 11 35 -10 12 -10 19 1 33 12 15 12 16 -2 5 -12 -9 -18 -10 -27
-1 -8 8 -13 7 -18 -7z"/>
<path d="M2710 3059 c0 -5 5 -7 10 -4 6 3 10 2 10 -4 0 -5 -6 -12 -12 -14 -10
-4 -10 -6 0 -6 7 -1 11 -5 7 -10 -3 -6 4 -8 15 -6 22 4 28 -10 8 -19 -7 -2 -4
-4 7 -3 11 2 25 6 32 10 6 4 14 3 18 -3 3 -5 12 -10 18 -10 7 0 6 4 -3 10 -13
9 -13 11 0 20 11 7 11 10 2 10 -7 0 -11 4 -8 9 4 5 -3 7 -14 4 -22 -6 -28 12
-7 21 6 2 3 4 -8 3 -11 -2 -25 -6 -32 -10 -6 -4 -14 -3 -18 3 -8 13 -25 13
-25 -1z m87 -29 c15 0 14 -2 -2 -13 -15 -12 -21 -12 -35 2 -12 11 -14 20 -7
29 9 11 12 10 19 -2 5 -9 16 -16 25 -16z"/>
<path d="M2840 3059 c0 -5 5 -7 10 -4 6 3 10 2 10 -4 0 -5 -6 -12 -12 -14 -10
-4 -10 -6 0 -6 7 -1 11 -5 7 -10 -3 -6 4 -8 15 -6 22 4 28 -10 8 -18 -10 -4
-10 -6 -1 -6 20 -2 27 21 10 34 -15 11 -15 13 1 30 15 17 15 17 0 6 -11 -8
-18 -9 -23 -1 -8 13 -25 13 -25 -1z"/>
<path d="M3010 3061 c0 -5 -10 -12 -22 -14 -17 -3 -14 -5 9 -6 25 -1 31 2 27
14 -7 17 -14 20 -14 6z"/>
<path d="M3040 3059 c0 -5 5 -7 10 -4 6 3 10 2 10 -4 0 -5 -6 -12 -12 -14 -10
-4 -10 -6 0 -6 7 -1 11 -5 7 -10 -3 -6 4 -8 15 -6 22 4 28 -10 8 -19 -7 -2 -4
-4 7 -3 11 2 25 6 32 10 6 4 14 3 18 -3 3 -5 12 -10 18 -10 7 0 6 4 -3 10 -13
9 -13 11 0 20 11 7 11 10 2 10 -7 0 -11 4 -8 9 4 5 -3 7 -14 4 -22 -6 -28 12
-7 21 6 2 3 4 -8 3 -11 -2 -25 -6 -32 -10 -6 -4 -14 -3 -18 3 -8 13 -25 13
-25 -1z m87 -29 c15 0 14 -2 -2 -13 -15 -12 -21 -12 -35 2 -12 11 -14 20 -7
29 9 11 12 10 19 -2 5 -9 16 -16 25 -16z"/>
<path d="M3170 3059 c0 -5 5 -7 10 -4 6 3 10 2 10 -4 0 -5 -6 -12 -12 -14 -10
-4 -10 -6 0 -6 7 -1 11 -5 7 -10 -3 -6 4 -8 15 -6 22 4 28 -10 8 -18 -10 -4
-10 -6 -1 -6 20 -2 27 21 10 34 -15 11 -15 13 1 30 15 17 15 17 0 6 -11 -8
-18 -9 -23 -1 -8 13 -25 13 -25 -1z"/>
<path d="M3304 3055 c-5 -11 -1 -21 9 -27 10 -5 17 -16 17 -23 0 -8 4 -15 9
-15 17 0 23 20 11 35 -10 12 -10 19 1 33 12 15 12 16 -2 5 -12 -9 -18 -10 -27
-1 -8 8 -13 7 -18 -7z"/>
<path d="M3370 3059 c0 -5 5 -7 10 -4 6 3 10 2 10 -4 0 -5 -6 -12 -12 -14 -10
-4 -10 -6 0 -6 7 -1 11 -5 7 -10 -3 -6 4 -8 15 -6 22 4 28 -10 8 -19 -7 -2 -4
-4 7 -3 11 2 25 6 32 10 6 4 14 3 18 -3 3 -5 12 -10 18 -10 7 0 6 4 -3 10 -13
9 -13 11 0 20 11 7 11 10 2 10 -7 0 -11 4 -8 9 4 5 -3 7 -14 4 -22 -6 -28 12
-7 21 6 2 3 4 -8 3 -11 -2 -25 -6 -32 -10 -6 -4 -14 -3 -18 3 -8 13 -25 13
-25 -1z m87 -29 c15 0 14 -2 -2 -13 -15 -12 -21 -12 -35 2 -12 11 -14 20 -7
29 9 11 12 10 19 -2 5 -9 16 -16 25 -16z"/>
<path d="M3500 3059 c0 -5 5 -7 10 -4 6 3 10 2 10 -4 0 -5 -6 -12 -12 -14 -10
-4 -10 -6 0 -6 7 -1 11 -5 7 -10 -3 -6 4 -8 15 -6 22 4 28 -10 8 -18 -10 -4
-10 -6 -1 -6 20 -2 27 21 10 34 -15 11 -15 13 1 30 15 17 15 17 0 6 -11 -8
-18 -9 -23 -1 -8 13 -25 13 -25 -1z"/>
<path d="M1993 3045 c0 -6 8 -11 17 -11 9 0 17 5 17 11 0 6 -8 11 -17 11 -9 0
-17 -5 -17 -11z"/>
<path d="M2064 3036 c-8 -8 -7 -15 0 -22 8 -8 15 -7 22 0 8 8 7 15 0 22 -8 8
-15 7 -22 0z"/>
<path d="M2134 3036 c-8 -8 -7 -15 0 -22 8 -8 15 -7 22 0 8 8 7 15 0 22 -8 8
-15 7 -22 0z"/>
<path d="M2194 3036 c-8 -8 -7 -15 0 -22 8 -8 15 -7 22 0 8 8 7 15 0 22 -8 8
-15 7 -22 0z"/>
<path d="M2260 3040 c-12 -8 -12 -10 -1 -10 11 0 11 -3 1 -14 -10 -13 -8 -13
14 -3 14 7 21 14 16 15 -6 2 -8 8 -4 13 7 12 -7 11 -26 -1z"/>
<path d="M2464 3036 c-8 -8 -7 -15 0 -22 8 -8 15 -7 22 0 8 8 7 15 0 22 -8 8
-15 7 -22 0z"/>
<path d="M2524 3036 c-8 -8 -7 -15 0 -22 8 -8 15 -7 22 0 8 8 7 15 0 22 -8 8
-15 7 -22 0z"/>
<path d="M2594 3036 c-8 -8 -7 -15 0 -22 8 -8 15 -7 22 0 8 8 7 15 0 22 -8 8
-15 7 -22 0z"/>
<path d="M2920 3040 c-12 -8 -12 -10 -1 -10 11 0 11 -3 0 -17 -11 -15 -11 -16
1 -5 19 16 35 15 54 -4 12 -12 16 -12 16 -2 0 11 2 11 9 0 7 -11 9 -11 14 2 4
11 1 16 -11 17 -9 1 -21 2 -27 4 -5 1 -16 3 -23 3 -7 1 -10 7 -7 12 8 13 -5
13 -25 0z"/>
<path d="M3250 3040 c-12 -8 -12 -10 -1 -10 11 0 11 -3 1 -14 -10 -13 -8 -13
14 -3 14 7 21 14 16 15 -6 2 -8 8 -4 13 7 12 -7 11 -26 -1z"/>
<path d="M2380 2919 c0 -5 5 -7 10 -4 6 3 10 2 10 -4 0 -5 -6 -12 -12 -14 -10
-4 -10 -6 0 -6 7 -1 11 -5 7 -10 -3 -6 4 -8 15 -6 22 4 28 -10 8 -18 -10 -4
-10 -6 -1 -6 20 -2 27 21 10 34 -15 11 -15 13 1 30 15 17 15 17 0 6 -11 -8
-18 -9 -23 -1 -8 13 -25 13 -25 -1z"/>
<path d="M2775 2920 c-9 -14 3 -30 22 -30 12 0 12 -3 -4 -17 -10 -10 -14 -14
-7 -10 7 4 15 3 19 -3 3 -5 12 -10 18 -10 7 0 6 4 -3 10 -13 9 -13 11 0 20 11
7 11 10 2 10 -7 0 -11 4 -8 9 4 5 -3 7 -14 4 -22 -6 -28 12 -7 20 9 4 9 6 0 6
-6 1 -15 -3 -18 -9z"/>
<path d="M2840 2919 c0 -5 5 -7 10 -4 6 3 10 2 10 -4 0 -5 -6 -12 -12 -14 -10
-4 -10 -6 0 -6 7 -1 11 -5 7 -10 -3 -6 4 -8 15 -6 22 4 28 -10 8 -18 -10 -4
-10 -6 -1 -6 20 -2 27 21 10 34 -15 11 -15 13 1 30 15 17 15 17 0 6 -11 -8
-18 -9 -23 -1 -8 13 -25 13 -25 -1z"/>
<path d="M2974 2915 c-5 -11 -1 -21 9 -27 10 -5 17 -16 17 -23 0 -8 4 -15 9
-15 17 0 23 20 11 35 -10 12 -10 19 1 33 12 15 12 16 -2 5 -12 -9 -18 -10 -27
-1 -8 8 -13 7 -18 -7z"/>
<path d="M3040 2919 c0 -5 5 -7 10 -4 6 3 10 2 10 -4 0 -5 -6 -12 -12 -14 -10
-4 -10 -6 0 -6 7 -1 11 -5 7 -10 -3 -6 4 -8 15 -6 22 4 28 -10 8 -19 -7 -2 -4
-4 7 -3 11 2 25 6 32 10 6 4 14 3 18 -3 3 -5 12 -10 18 -10 7 0 6 4 -3 10 -13
9 -13 11 0 20 11 7 11 10 2 10 -7 0 -11 4 -8 9 4 5 -3 7 -14 4 -22 -6 -28 12
-7 21 6 2 3 4 -8 3 -11 -2 -25 -6 -32 -10 -6 -4 -14 -3 -18 3 -8 13 -25 13
-25 -1z m87 -29 c15 0 14 -2 -2 -13 -15 -12 -21 -12 -35 2 -12 11 -14 20 -7
29 9 11 12 10 19 -2 5 -9 16 -16 25 -16z"/>
<path d="M3170 2919 c0 -5 5 -7 10 -4 6 3 10 2 10 -4 0 -5 -6 -12 -12 -14 -10
-4 -10 -6 0 -6 7 -1 11 -5 7 -10 -3 -6 4 -8 15 -6 22 4 28 -10 8 -18 -10 -4
-10 -6 -1 -6 20 -2 27 21 10 34 -15 11 -15 13 1 30 15 17 15 17 0 6 -11 -8
-18 -9 -23 -1 -8 13 -25 13 -25 -1z"/>
<path d="M3304 2915 c-5 -11 -1 -21 9 -27 10 -5 17 -16 17 -23 0 -8 4 -15 9
-15 17 0 23 20 11 35 -10 12 -10 19 1 33 12 15 12 16 -2 5 -12 -9 -18 -10 -27
-1 -8 8 -13 7 -18 -7z"/>
<path d="M3370 2919 c0 -5 5 -7 10 -4 6 3 10 2 10 -4 0 -5 -6 -12 -12 -14 -10
-4 -10 -6 0 -6 7 -1 11 -5 7 -10 -3 -6 4 -8 15 -6 22 4 28 -10 8 -19 -7 -2 -4
-4 7 -3 11 2 25 6 32 10 6 4 14 3 18 -3 3 -5 12 -10 18 -10 7 0 6 4 -3 10 -13
9 -13 11 0 20 11 7 11 10 2 10 -7 0 -11 4 -8 9 4 5 -3 7 -14 4 -22 -6 -28 12
-7 21 6 2 3 4 -8 3 -11 -2 -25 -6 -32 -10 -6 -4 -14 -3 -18 3 -8 13 -25 13
-25 -1z m87 -29 c15 0 14 -2 -2 -13 -15 -12 -21 -12 -35 2 -12 11 -14 20 -7
29 9 11 12 10 19 -2 5 -9 16 -16 25 -16z"/>
<path d="M2064 2896 c-8 -8 -7 -15 0 -22 8 -8 15 -7 22 0 8 8 7 15 0 22 -8 8
-15 7 -22 0z"/>
<path d="M2134 2896 c-8 -8 -7 -15 0 -22 8 -8 15 -7 22 0 8 8 7 15 0 22 -8 8
-15 7 -22 0z"/>
<path d="M2194 2896 c-8 -8 -7 -15 0 -22 8 -8 15 -7 22 0 8 8 7 15 0 22 -8 8
-15 7 -22 0z"/>
<path d="M2260 2900 c-12 -8 -12 -10 -1 -10 11 0 11 -3 1 -14 -10 -13 -8 -13
14 -3 14 7 21 14 16 15 -6 2 -8 8 -4 13 7 12 -7 11 -26 -1z"/>
<path d="M2464 2896 c-8 -8 -7 -15 0 -22 8 -8 15 -7 22 0 8 8 7 15 0 22 -8 8
-15 7 -22 0z"/>
<path d="M2524 2896 c-8 -8 -7 -15 0 -22 8 -8 15 -7 22 0 8 8 7 15 0 22 -8 8
-15 7 -22 0z"/>
<path d="M2594 2896 c-8 -8 -7 -15 0 -22 8 -8 15 -7 22 0 8 8 7 15 0 22 -8 8
-15 7 -22 0z"/>
<path d="M2724 2896 c-8 -8 -7 -15 0 -22 8 -8 15 -7 22 0 8 8 7 15 0 22 -8 8
-15 7 -22 0z"/>
<path d="M2920 2900 c-12 -8 -12 -10 -1 -10 11 0 11 -3 1 -14 -10 -13 -8 -13
14 -3 14 7 21 14 16 15 -6 2 -8 8 -4 13 7 12 -7 11 -26 -1z"/>
<path d="M3250 2900 c-12 -8 -12 -10 -1 -10 11 0 11 -3 1 -14 -10 -13 -8 -13
14 -3 14 7 21 14 16 15 -6 2 -8 8 -4 13 7 12 -7 11 -26 -1z"/>
<path d="M3514 2896 c-8 -8 -7 -15 0 -22 8 -8 15 -7 22 0 8 8 7 15 0 22 -8 8
-15 7 -22 0z"/>
<path d="M1993 2883 c9 -2 25 -2 35 0 9 3 1 5 -18 5 -19 0 -27 -2 -17 -5z"/>
<path d="M2323 2883 c9 -2 25 -2 35 0 9 3 1 5 -18 5 -19 0 -27 -2 -17 -5z"/>
<path d="M2653 2883 c9 -2 25 -2 35 0 9 3 1 5 -18 5 -19 0 -27 -2 -17 -5z"/>
<path d="M2445 2780 c-9 -14 3 -30 22 -30 12 0 12 -3 -4 -17 -10 -10 -14 -14
-7 -10 7 4 15 3 19 -3 3 -5 12 -10 18 -10 7 0 6 4 -3 10 -13 9 -13 11 0 20 11
7 11 10 2 10 -7 0 -11 4 -8 9 4 5 -3 7 -14 4 -22 -6 -28 12 -7 20 9 4 9 6 0 6
-6 1 -15 -3 -18 -9z"/>
<path d="M2840 2779 c0 -5 5 -7 10 -4 6 3 10 2 10 -4 0 -5 -6 -12 -12 -14 -10
-4 -10 -6 0 -6 7 -1 11 -5 7 -10 -3 -6 4 -8 15 -6 22 4 28 -10 8 -18 -10 -4
-10 -6 -1 -6 20 -2 27 21 10 34 -15 11 -15 13 1 30 15 17 15 17 0 6 -11 -8
-18 -9 -23 -1 -8 13 -25 13 -25 -1z"/>
<path d="M2974 2775 c-5 -11 -1 -21 9 -27 10 -5 17 -16 17 -23 0 -8 4 -15 9
-15 17 0 23 20 11 35 -10 12 -10 19 1 33 12 15 12 16 -2 5 -12 -9 -18 -10 -27
-1 -8 8 -13 7 -18 -7z"/>
<path d="M3040 2779 c0 -5 5 -7 10 -4 6 3 10 2 10 -4 0 -5 -6 -12 -12 -14 -10
-4 -10 -6 0 -6 7 -1 11 -5 7 -10 -3 -6 4 -8 15 -6 22 4 28 -10 8 -19 -7 -2 -4
-4 7 -3 11 2 25 6 32 10 6 4 14 3 18 -3 3 -5 12 -10 18 -10 7 0 6 4 -3 10 -13
9 -13 11 0 20 11 7 11 10 2 10 -7 0 -11 4 -8 9 4 5 -3 7 -14 4 -22 -6 -28 12
-7 21 6 2 3 4 -8 3 -11 -2 -25 -6 -32 -10 -6 -4 -14 -3 -18 3 -8 13 -25 13
-25 -1z m87 -29 c15 0 14 -2 -2 -13 -15 -12 -21 -12 -35 2 -12 11 -14 20 -7
29 9 11 12 10 19 -2 5 -9 16 -16 25 -16z"/>
<path d="M3170 2779 c0 -5 5 -7 10 -4 6 3 10 2 10 -4 0 -5 -6 -12 -12 -14 -10
-4 -10 -6 0 -6 7 -1 11 -5 7 -10 -3 -6 4 -8 15 -6 22 4 28 -10 8 -18 -10 -4
-10 -6 -1 -6 20 -2 27 21 10 34 -15 11 -15 13 1 30 15 17 15 17 0 6 -11 -8
-18 -9 -23 -1 -8 13 -25 13 -25 -1z"/>
<path d="M3304 2775 c-5 -11 -1 -21 9 -27 10 -5 17 -16 17 -23 0 -8 4 -15 9
-15 17 0 23 20 11 35 -10 12 -10 19 1 33 12 15 12 16 -2 5 -12 -9 -18 -10 -27
-1 -8 8 -13 7 -18 -7z"/>
<path d="M3370 2779 c0 -5 5 -7 10 -4 6 3 10 2 10 -4 0 -5 -6 -12 -12 -14 -10
-4 -10 -6 0 -6 7 -1 11 -5 7 -10 -3 -6 4 -8 15 -6 22 4 28 -10 8 -19 -7 -2 -4
-4 7 -3 11 2 25 6 32 10 6 4 14 3 18 -3 3 -5 12 -10 18 -10 7 0 6 4 -3 10 -13
9 -13 11 0 20 11 7 11 10 2 10 -7 0 -11 4 -8 9 4 5 -3 7 -14 4 -22 -6 -28 12
-7 21 6 2 3 4 -8 3 -11 -2 -25 -6 -32 -10 -6 -4 -14 -3 -18 3 -8 13 -25 13
-25 -1z m87 -29 c15 0 14 -2 -2 -13 -15 -12 -21 -12 -35 2 -12 11 -14 20 -7
29 9 11 12 10 19 -2 5 -9 16 -16 25 -16z"/>
<path d="M2064 2756 c-8 -8 -7 -15 0 -22 8 -8 15 -7 22 0 8 8 7 15 0 22 -8 8
-15 7 -22 0z"/>
<path d="M2134 2756 c-8 -8 -7 -15 0 -22 8 -8 15 -7 22 0 8 8 7 15 0 22 -8 8
-15 7 -22 0z"/>
<path d="M2194 2756 c-8 -8 -7 -15 0 -22 8 -8 15 -7 22 0 8 8 7 15 0 22 -8 8
-15 7 -22 0z"/>
<path d="M2264 2756 c-8 -8 -7 -15 0 -22 8 -8 15 -7 22 0 8 8 7 15 0 22 -8 8
-15 7 -22 0z"/>
<path d="M2394 2756 c-8 -8 -7 -15 0 -22 8 -8 15 -7 22 0 8 8 7 15 0 22 -8 8
-15 7 -22 0z"/>
<path d="M2524 2756 c-8 -8 -7 -15 0 -22 8 -8 15 -7 22 0 8 8 7 15 0 22 -8 8
-15 7 -22 0z"/>
<path d="M2594 2756 c-8 -8 -7 -15 0 -22 8 -8 15 -7 22 0 8 8 7 15 0 22 -8 8
-15 7 -22 0z"/>
<path d="M2724 2756 c-8 -8 -7 -15 0 -22 8 -8 15 -7 22 0 8 8 7 15 0 22 -8 8
-15 7 -22 0z"/>
<path d="M2794 2756 c-8 -8 -7 -15 0 -22 8 -8 15 -7 22 0 8 8 7 15 0 22 -8 8
-15 7 -22 0z"/>
<path d="M2920 2760 c-12 -8 -12 -10 -1 -10 11 0 11 -3 1 -14 -10 -13 -8 -13
14 -3 14 7 21 14 16 15 -6 2 -8 8 -4 13 7 12 -7 11 -26 -1z"/>
<path d="M3250 2760 c-12 -8 -12 -10 -1 -10 11 0 11 -3 1 -14 -10 -13 -8 -13
14 -3 14 7 21 14 16 15 -6 2 -8 8 -4 13 7 12 -7 11 -26 -1z"/>
<path d="M1993 2743 c9 -2 25 -2 35 0 9 3 1 5 -18 5 -19 0 -27 -2 -17 -5z"/>
<path d="M2323 2743 c9 -2 25 -2 35 0 9 3 1 5 -18 5 -19 0 -27 -2 -17 -5z"/>
<path d="M2653 2743 c9 -2 25 -2 35 0 9 3 1 5 -18 5 -19 0 -27 -2 -17 -5z"/>
<path d="M2314 2635 c-5 -11 -1 -21 9 -27 10 -5 17 -16 17 -23 0 -8 4 -15 9
-15 17 0 23 20 11 35 -10 12 -10 19 1 33 12 15 12 16 -2 5 -12 -9 -18 -10 -27
-1 -8 8 -13 7 -18 -7z"/>
<path d="M2380 2639 c0 -5 5 -7 10 -4 6 3 10 2 10 -4 0 -5 -6 -12 -12 -14 -10
-4 -10 -6 0 -6 7 -1 11 -5 7 -10 -3 -6 4 -8 15 -6 22 4 28 -10 8 -19 -7 -2 -4
-4 7 -3 11 2 25 6 32 10 6 4 14 3 18 -3 3 -5 12 -10 18 -10 7 0 6 4 -3 10 -13
9 -13 11 0 20 11 7 11 10 2 10 -7 0 -11 4 -8 9 4 5 -3 7 -14 4 -22 -6 -28 12
-7 21 6 2 3 4 -8 3 -11 -2 -25 -6 -32 -10 -6 -4 -14 -3 -18 3 -8 13 -25 13
-25 -1z m87 -29 c15 0 14 -2 -2 -13 -15 -12 -21 -12 -35 2 -12 11 -14 20 -7
29 9 11 12 10 19 -2 5 -9 16 -16 25 -16z"/>
<path d="M2840 2639 c0 -5 5 -7 10 -4 6 3 10 2 10 -4 0 -5 -6 -12 -12 -14 -10
-4 -10 -6 0 -6 7 -1 11 -5 7 -10 -3 -6 4 -8 15 -6 11 2 20 0 20 -6 0 -5 -5 -9
-12 -9 -6 0 -8 -3 -5 -6 4 -4 13 -1 21 5 8 7 25 11 38 9 18 -2 22 2 22 22 0
14 -6 24 -12 23 -7 -2 -12 3 -12 10 0 8 -3 7 -9 -3 -11 -16 -4 -33 10 -25 5 4
9 1 9 -4 0 -12 -29 -14 -55 -5 -14 6 -14 8 2 28 14 16 15 18 1 8 -11 -9 -18
-10 -23 -2 -8 13 -25 13 -25 -1z"/>
<path d="M2974 2635 c-5 -11 -1 -21 9 -27 10 -5 17 -16 17 -23 0 -8 4 -15 9
-15 17 0 23 20 11 35 -10 12 -10 19 1 33 12 15 12 16 -2 5 -12 -9 -18 -10 -27
-1 -8 8 -13 7 -18 -7z"/>
<path d="M3040 2639 c0 -5 5 -7 10 -4 6 3 10 2 10 -4 0 -5 -6 -12 -12 -14 -10
-4 -10 -6 0 -6 7 -1 11 -5 7 -10 -3 -6 4 -8 15 -6 22 4 28 -10 8 -19 -7 -2 -4
-4 7 -3 11 2 25 6 32 10 6 4 14 3 18 -3 3 -5 12 -10 18 -10 7 0 6 4 -3 10 -13
9 -13 11 0 20 11 7 11 10 2 10 -7 0 -11 4 -8 9 4 5 -3 7 -14 4 -22 -6 -28 12
-7 21 6 2 3 4 -8 3 -11 -2 -25 -6 -32 -10 -6 -4 -14 -3 -18 3 -8 13 -25 13
-25 -1z m87 -29 c15 0 14 -2 -2 -13 -15 -12 -21 -12 -35 2 -12 11 -14 20 -7
29 9 11 12 10 19 -2 5 -9 16 -16 25 -16z"/>
<path d="M3170 2639 c0 -5 5 -7 10 -4 6 3 10 2 10 -4 0 -5 -6 -12 -12 -14 -10
-4 -10 -6 0 -6 7 -1 11 -5 7 -10 -3 -6 4 -8 15 -6 22 4 28 -10 8 -18 -10 -4
-10 -6 -1 -6 20 -2 27 21 10 34 -15 11 -15 13 1 30 15 17 15 17 0 6 -11 -8
-18 -9 -23 -1 -8 13 -25 13 -25 -1z"/>
<path d="M3304 2635 c-5 -11 -1 -21 9 -27 10 -5 17 -16 17 -23 0 -8 4 -15 9
-15 17 0 23 20 11 35 -10 12 -10 19 1 33 12 15 12 16 -2 5 -12 -9 -18 -10 -27
-1 -8 8 -13 7 -18 -7z"/>
<path d="M2064 2616 c-8 -8 -7 -15 0 -22 8 -8 15 -7 22 0 8 8 7 15 0 22 -8 8
-15 7 -22 0z"/>
<path d="M2134 2616 c-8 -8 -7 -15 0 -22 8 -8 15 -7 22 0 8 8 7 15 0 22 -8 8
-15 7 -22 0z"/>
<path d="M2194 2616 c-8 -8 -7 -15 0 -22 8 -8 15 -7 22 0 8 8 7 15 0 22 -8 8
-15 7 -22 0z"/>
<path d="M2264 2616 c-8 -8 -7 -15 0 -22 8 -8 15 -7 22 0 8 8 7 15 0 22 -8 8
-15 7 -22 0z"/>
<path d="M2524 2616 c-8 -8 -7 -15 0 -22 8 -8 15 -7 22 0 8 8 7 15 0 22 -8 8
-15 7 -22 0z"/>
<path d="M2594 2616 c-8 -8 -7 -15 0 -22 8 -8 15 -7 22 0 8 8 7 15 0 22 -8 8
-15 7 -22 0z"/>
<path d="M2724 2616 c-8 -8 -7 -15 0 -22 8 -8 15 -7 22 0 8 8 7 15 0 22 -8 8
-15 7 -22 0z"/>
<path d="M2794 2616 c-8 -8 -7 -15 0 -22 8 -8 15 -7 22 0 8 8 7 15 0 22 -8 8
-15 7 -22 0z"/>
<path d="M3250 2620 c-12 -8 -12 -10 -1 -10 11 0 11 -3 1 -14 -10 -13 -8 -13
14 -3 14 7 21 14 16 15 -6 2 -8 8 -4 13 7 12 -7 11 -26 -1z"/>
<path d="M3384 2616 c-8 -8 -7 -15 0 -22 8 -8 15 -7 22 0 8 8 7 15 0 22 -8 8
-15 7 -22 0z"/>
<path d="M1993 2603 c9 -2 25 -2 35 0 9 3 1 5 -18 5 -19 0 -27 -2 -17 -5z"/>
<path d="M2653 2603 c9 -2 25 -2 35 0 9 3 1 5 -18 5 -19 0 -27 -2 -17 -5z"/>
<path d="M3458 2603 c7 -3 16 -2 19 1 4 3 -2 6 -13 5 -11 0 -14 -3 -6 -6z"/>
<path d="M3883 2470 c0 -41 2 -58 4 -37 2 20 2 54 0 75 -2 20 -4 3 -4 -38z"/>
<path d="M2180 2499 c0 -5 5 -7 10 -4 6 3 10 2 10 -4 0 -5 -6 -12 -12 -14 -10
-4 -10 -6 0 -6 7 -1 11 -5 7 -10 -3 -6 4 -8 15 -6 22 4 28 -10 8 -18 -10 -4
-10 -6 -1 -6 20 -2 27 21 10 34 -15 11 -15 13 1 30 15 17 15 17 0 6 -11 -8
-18 -9 -23 -1 -8 13 -25 13 -25 -1z"/>
<path d="M2314 2495 c-5 -11 -1 -21 9 -27 10 -5 17 -16 17 -23 0 -8 4 -15 9
-15 17 0 23 20 11 35 -10 12 -10 19 1 33 12 15 12 16 -2 5 -12 -9 -18 -10 -27
-1 -8 8 -13 7 -18 -7z"/>
<path d="M2380 2499 c0 -5 5 -7 10 -4 6 3 10 2 10 -4 0 -5 -6 -12 -12 -14 -10
-4 -10 -6 0 -6 7 -1 11 -5 7 -10 -3 -6 4 -8 15 -6 22 4 28 -10 8 -18 -10 -4
-10 -6 -1 -6 20 -2 27 21 10 34 -15 11 -15 13 1 30 15 17 15 17 0 6 -11 -8
-18 -9 -23 -1 -8 13 -25 13 -25 -1z"/>
<path d="M2840 2499 c0 -5 5 -7 10 -4 6 3 10 2 10 -4 0 -5 -6 -12 -12 -14 -10
-4 -10 -6 0 -6 7 -1 11 -5 7 -10 -3 -6 4 -8 15 -6 22 4 28 -10 8 -18 -10 -4
-10 -6 -1 -6 20 -2 27 21 10 34 -15 11 -15 13 1 30 15 17 15 17 0 6 -11 -8
-18 -9 -23 -1 -8 13 -25 13 -25 -1z"/>
<path d="M3059 2508 c-6 -20 -6 -39 0 -42 4 -3 7 6 7 20 0 20 -4 32 -7 22z"/>
<path d="M3117 2496 c-4 -10 -1 -16 8 -16 24 0 17 -18 -7 -23 -18 -3 -15 -5 8
-6 28 -1 31 2 28 25 -3 28 -14 46 -14 23 0 -11 -2 -12 -9 -1 -7 11 -9 11 -14
-2z"/>
<path d="M1993 2485 c0 -6 8 -11 17 -11 9 0 17 5 17 11 0 6 -8 11 -17 11 -9 0
-17 -5 -17 -11z"/>
<path d="M2983 2485 c0 -6 8 -11 17 -11 9 0 17 5 17 11 0 6 -8 11 -17 11 -9 0
-17 -5 -17 -11z"/>
<path d="M2064 2476 c-8 -8 -7 -15 0 -22 8 -8 15 -7 22 0 8 8 7 15 0 22 -8 8
-15 7 -22 0z"/>
<path d="M2134 2476 c-8 -8 -7 -15 0 -22 8 -8 15 -7 22 0 8 8 7 15 0 22 -8 8
-15 7 -22 0z"/>
<path d="M2260 2480 c-12 -8 -12 -10 -1 -10 11 0 11 -3 1 -14 -10 -13 -8 -13
14 -3 14 7 21 14 16 15 -6 2 -8 8 -4 13 7 12 -7 11 -26 -1z"/>
<path d="M2464 2476 c-8 -8 -7 -15 0 -22 8 -8 15 -7 22 0 8 8 7 15 0 22 -8 8
-15 7 -22 0z"/>
<path d="M2524 2476 c-8 -8 -7 -15 0 -22 8 -8 15 -7 22 0 8 8 7 15 0 22 -8 8
-15 7 -22 0z"/>
<path d="M2594 2476 c-8 -8 -7 -15 0 -22 8 -8 15 -7 22 0 8 8 7 15 0 22 -8 8
-15 7 -22 0z"/>
<path d="M2724 2476 c-8 -8 -7 -15 0 -22 8 -8 15 -7 22 0 8 8 7 15 0 22 -8 8
-15 7 -22 0z"/>
<path d="M2794 2476 c-8 -8 -7 -15 0 -22 8 -8 15 -7 22 0 8 8 7 15 0 22 -8 8
-15 7 -22 0z"/>
<path d="M2920 2480 c-12 -8 -12 -10 -1 -10 11 0 11 -3 1 -14 -10 -13 -8 -13
14 -3 14 7 21 14 16 15 -6 2 -8 8 -4 13 7 12 -7 11 -26 -1z"/>
<path d="M3176 2464 c3 -28 14 -46 14 -23 0 11 2 12 9 1 7 -11 9 -11 14 2 4
10 1 16 -8 16 -24 0 -17 18 8 23 17 3 14 5 -9 6 -28 1 -31 -2 -28 -25z"/>
<path d="M2653 2463 c9 -2 25 -2 35 0 9 3 1 5 -18 5 -19 0 -27 -2 -17 -5z"/>
<path d="M3258 2463 c7 -3 16 -2 19 1 4 3 -2 6 -13 5 -11 0 -14 -3 -6 -6z"/>
<path d="M2115 2360 c-9 -14 3 -30 22 -30 12 0 12 -3 -4 -17 -10 -10 -14 -14
-7 -10 7 4 15 3 19 -3 3 -5 12 -10 18 -10 7 0 6 4 -3 10 -13 9 -13 11 0 20 11
7 11 10 2 10 -7 0 -11 4 -8 9 4 5 -3 7 -14 4 -22 -6 -28 12 -7 20 9 4 9 6 0 6
-6 1 -15 -3 -18 -9z"/>
<path d="M2775 2360 c-9 -14 3 -30 22 -30 12 0 12 -3 -4 -17 -10 -10 -14 -14
-7 -10 7 4 15 3 19 -3 3 -5 12 -10 18 -10 7 0 6 4 -3 10 -13 9 -13 11 0 20 11
7 11 10 2 10 -7 0 -11 4 -8 9 4 5 -3 7 -14 4 -22 -6 -28 12 -7 20 9 4 9 6 0 6
-6 1 -15 -3 -18 -9z"/>
<path d="M2840 2359 c0 -5 5 -7 10 -4 6 3 10 2 10 -4 0 -5 -6 -12 -12 -14 -10
-4 -10 -6 0 -6 7 -1 11 -5 7 -10 -3 -6 4 -8 15 -6 22 4 28 -10 8 -18 -10 -4
-10 -6 -1 -6 20 -2 27 21 10 34 -15 11 -15 13 1 30 15 17 15 17 0 6 -11 -8
-18 -9 -23 -1 -8 13 -25 13 -25 -1z"/>
<path d="M2934 2345 c0 -13 3 -22 7 -19 8 4 6 30 -2 38 -3 3 -5 -5 -5 -19z"/>
<path d="M3117 2363 c-3 -5 5 -8 18 -8 13 0 21 3 18 8 -2 4 -10 7 -18 7 -8 0
-16 -3 -18 -7z"/>
<path d="M2064 2336 c-8 -8 -7 -15 0 -22 8 -8 15 -7 22 0 8 8 7 15 0 22 -8 8
-15 7 -22 0z"/>
<path d="M2194 2336 c-8 -8 -7 -15 0 -22 8 -8 15 -7 22 0 8 8 7 15 0 22 -8 8
-15 7 -22 0z"/>
<path d="M2264 2336 c-8 -8 -7 -15 0 -22 8 -8 15 -7 22 0 8 8 7 15 0 22 -8 8
-15 7 -22 0z"/>
<path d="M2394 2336 c-8 -8 -7 -15 0 -22 8 -8 15 -7 22 0 8 8 7 15 0 22 -8 8
-15 7 -22 0z"/>
<path d="M2464 2336 c-8 -8 -7 -15 0 -22 8 -8 15 -7 22 0 8 8 7 15 0 22 -8 8
-15 7 -22 0z"/>
<path d="M2524 2336 c-8 -8 -7 -15 0 -22 8 -8 15 -7 22 0 8 8 7 15 0 22 -8 8
-15 7 -22 0z"/>
<path d="M2594 2336 c-8 -8 -7 -15 0 -22 8 -8 15 -7 22 0 8 8 7 15 0 22 -8 8
-15 7 -22 0z"/>
<path d="M2724 2336 c-8 -8 -7 -15 0 -22 8 -8 15 -7 22 0 8 8 7 15 0 22 -8 8
-15 7 -22 0z"/>
<path d="M3176 2324 c3 -28 14 -46 14 -23 0 11 2 12 9 1 7 -11 9 -11 14 2 4
10 1 16 -8 16 -24 0 -17 18 8 23 17 3 14 5 -9 6 -28 1 -31 -2 -28 -25z"/>
<path d="M3101 2324 c0 -11 3 -14 6 -6 3 7 2 16 -1 19 -3 4 -6 -2 -5 -13z"/>
<path d="M3120 2330 c0 -5 7 -7 15 -4 8 4 15 8 15 10 0 2 -7 4 -15 4 -8 0 -15
-4 -15 -10z"/>
<path d="M2323 2323 c9 -2 25 -2 35 0 9 3 1 5 -18 5 -19 0 -27 -2 -17 -5z"/>
<path d="M2653 2323 c9 -2 25 -2 35 0 9 3 1 5 -18 5 -19 0 -27 -2 -17 -5z"/>
<path d="M3135 2310 c-19 -8 -19 -9 3 -9 12 -1 22 4 22 9 0 6 -1 10 -2 9 -2 0
-12 -4 -23 -9z"/>
<path d="M3118 2273 c6 -2 18 -2 25 0 6 3 1 5 -13 5 -14 0 -19 -2 -12 -5z"/>
<path d="M2115 2220 c-9 -14 3 -30 22 -30 12 0 12 -3 -4 -17 -10 -10 -14 -14
-7 -10 7 4 15 3 19 -3 3 -5 12 -10 18 -10 7 0 6 4 -3 10 -13 9 -13 11 0 20 11
7 11 10 2 10 -7 0 -11 4 -8 9 4 5 -3 7 -14 4 -22 -6 -28 12 -7 20 9 4 9 6 0 6
-6 1 -15 -3 -18 -9z"/>
<path d="M2180 2219 c0 -5 5 -7 10 -4 6 3 10 2 10 -4 0 -5 -6 -12 -12 -14 -10
-4 -10 -6 0 -6 7 -1 11 -5 7 -10 -3 -6 4 -8 15 -6 22 4 28 -10 8 -18 -10 -4
-10 -6 -1 -6 20 -2 27 21 10 34 -15 11 -15 13 1 30 15 17 15 17 0 6 -11 -8
-18 -9 -23 -1 -8 13 -25 13 -25 -1z"/>
<path d="M2775 2220 c-9 -14 3 -30 22 -30 12 0 12 -3 -4 -17 -10 -10 -14 -14
-7 -10 7 4 15 3 19 -3 3 -5 12 -10 18 -10 7 0 6 4 -3 10 -13 9 -13 11 0 20 11
7 11 10 2 10 -7 0 -11 4 -8 9 4 5 -3 7 -14 4 -22 -6 -28 12 -7 20 9 4 9 6 0 6
-6 1 -15 -3 -18 -9z"/>
<path d="M2840 2219 c0 -5 5 -7 10 -4 6 3 10 2 10 -4 0 -5 -6 -12 -12 -14 -10
-4 -10 -6 0 -6 7 -1 11 -5 7 -10 -3 -6 4 -8 15 -6 22 4 28 -10 8 -18 -10 -4
-10 -6 -1 -6 20 -2 27 21 10 34 -15 11 -15 13 1 30 15 17 15 17 0 6 -11 -8
-18 -9 -23 -1 -8 13 -25 13 -25 -1z"/>
<path d="M2064 2196 c-8 -8 -7 -15 0 -22 8 -8 15 -7 22 0 8 8 7 15 0 22 -8 8
-15 7 -22 0z"/>
<path d="M2264 2196 c-8 -8 -7 -15 0 -22 8 -8 15 -7 22 0 8 8 7 15 0 22 -8 8
-15 7 -22 0z"/>
<path d="M2394 2196 c-8 -8 -7 -15 0 -22 8 -8 15 -7 22 0 8 8 7 15 0 22 -8 8
-15 7 -22 0z"/>
<path d="M2464 2196 c-8 -8 -7 -15 0 -22 8 -8 15 -7 22 0 8 8 7 15 0 22 -8 8
-15 7 -22 0z"/>
<path d="M2524 2196 c-8 -8 -7 -15 0 -22 8 -8 15 -7 22 0 8 8 7 15 0 22 -8 8
-15 7 -22 0z"/>
<path d="M2594 2196 c-8 -8 -7 -15 0 -22 8 -8 15 -7 22 0 8 8 7 15 0 22 -8 8
-15 7 -22 0z"/>
<path d="M2724 2196 c-8 -8 -7 -15 0 -22 8 -8 15 -7 22 0 8 8 7 15 0 22 -8 8
-15 7 -22 0z"/>
<path d="M2323 2183 c9 -2 25 -2 35 0 9 3 1 5 -18 5 -19 0 -27 -2 -17 -5z"/>
<path d="M2653 2183 c9 -2 25 -2 35 0 9 3 1 5 -18 5 -19 0 -27 -2 -17 -5z"/>
<path d="M2928 2183 c7 -3 16 -2 19 1 4 3 -2 6 -13 5 -11 0 -14 -3 -6 -6z"/>
<path d="M3188 2183 c7 -3 16 -2 19 1 4 3 -2 6 -13 5 -11 0 -14 -3 -6 -6z"/>
<path d="M2710 2079 c0 -5 5 -7 10 -4 6 3 10 2 10 -4 0 -5 -6 -12 -12 -14 -10
-4 -10 -6 0 -6 7 -1 11 -5 7 -10 -3 -6 4 -8 15 -6 22 4 28 -10 8 -19 -7 -2 -4
-4 7 -3 11 2 25 6 32 10 6 4 14 3 18 -3 3 -5 12 -10 18 -10 7 0 6 4 -3 10 -13
9 -13 11 0 20 11 7 11 10 2 10 -7 0 -11 4 -8 9 4 5 -3 7 -14 4 -22 -6 -28 12
-7 21 6 2 3 4 -8 3 -11 -2 -25 -6 -32 -10 -6 -4 -14 -3 -18 3 -8 13 -25 13
-25 -1z m87 -29 c15 0 14 -2 -2 -13 -15 -12 -21 -12 -35 2 -12 11 -14 20 -7
29 9 11 12 10 19 -2 5 -9 16 -16 25 -16z"/>
<path d="M2859 2088 c-6 -20 -6 -39 0 -42 4 -3 7 6 7 20 0 20 -4 32 -7 22z"/>
<path d="M2064 2056 c-8 -8 -7 -15 0 -22 8 -8 15 -7 22 0 8 8 7 15 0 22 -8 8
-15 7 -22 0z"/>
<path d="M2134 2056 c-8 -8 -7 -15 0 -22 8 -8 15 -7 22 0 8 8 7 15 0 22 -8 8
-15 7 -22 0z"/>
<path d="M2194 2056 c-8 -8 -7 -15 0 -22 8 -8 15 -7 22 0 8 8 7 15 0 22 -8 8
-15 7 -22 0z"/>
<path d="M2260 2060 c-12 -8 -12 -10 -1 -10 11 0 11 -3 1 -14 -10 -13 -8 -13
14 -3 14 7 21 14 16 15 -6 2 -8 8 -4 13 7 12 -7 11 -26 -1z"/>
<path d="M2394 2056 c-8 -8 -7 -15 0 -22 8 -8 15 -7 22 0 8 8 7 15 0 22 -8 8
-15 7 -22 0z"/>
<path d="M2464 2056 c-8 -8 -7 -15 0 -22 8 -8 15 -7 22 0 8 8 7 15 0 22 -8 8
-15 7 -22 0z"/>
<path d="M2524 2056 c-8 -8 -7 -15 0 -22 8 -8 15 -7 22 0 8 8 7 15 0 22 -8 8
-15 7 -22 0z"/>
<path d="M2594 2056 c-8 -8 -7 -15 0 -22 8 -8 15 -7 22 0 8 8 7 15 0 22 -8 8
-15 7 -22 0z"/>
<path d="M2323 2043 c9 -2 25 -2 35 0 9 3 1 5 -18 5 -19 0 -27 -2 -17 -5z"/>
<path d="M2653 2043 c9 -2 25 -2 35 0 9 3 1 5 -18 5 -19 0 -27 -2 -17 -5z"/>
<path d="M2644 1935 c-5 -11 -1 -21 9 -27 10 -5 17 -16 17 -23 0 -8 4 -15 9
-15 17 0 23 20 11 35 -10 12 -10 19 1 33 12 15 12 16 -2 5 -12 -9 -18 -10 -27
-1 -8 8 -13 7 -18 -7z"/>
<path d="M2710 1939 c0 -5 5 -7 10 -4 6 3 10 2 10 -4 0 -5 -6 -12 -12 -14 -10
-4 -10 -6 0 -6 7 -1 11 -5 7 -10 -3 -6 4 -8 15 -6 22 4 28 -10 8 -18 -10 -4
-10 -6 -1 -6 20 -2 27 21 10 34 -15 11 -15 13 1 30 15 17 15 17 0 6 -11 -8
-18 -9 -23 -1 -8 13 -25 13 -25 -1z"/>
<path d="M2783 1925 c0 -6 8 -11 17 -11 9 0 17 5 17 11 0 6 -8 11 -17 11 -9 0
-17 -5 -17 -11z"/>
<path d="M2134 1916 c-8 -8 -7 -15 0 -22 8 -8 15 -7 22 0 8 8 7 15 0 22 -8 8
-15 7 -22 0z"/>
<path d="M2194 1916 c-8 -8 -7 -15 0 -22 8 -8 15 -7 22 0 8 8 7 15 0 22 -8 8
-15 7 -22 0z"/>
<path d="M2264 1916 c-8 -8 -7 -15 0 -22 8 -8 15 -7 22 0 8 8 7 15 0 22 -8 8
-15 7 -22 0z"/>
<path d="M2394 1916 c-8 -8 -7 -15 0 -22 8 -8 15 -7 22 0 8 8 7 15 0 22 -8 8
-15 7 -22 0z"/>
<path d="M2464 1916 c-8 -8 -7 -15 0 -22 8 -8 15 -7 22 0 8 8 7 15 0 22 -8 8
-15 7 -22 0z"/>
<path d="M2524 1916 c-8 -8 -7 -15 0 -22 8 -8 15 -7 22 0 8 8 7 15 0 22 -8 8
-15 7 -22 0z"/>
<path d="M2594 1916 c-8 -8 -7 -15 0 -22 8 -8 15 -7 22 0 8 8 7 15 0 22 -8 8
-15 7 -22 0z"/>
<path d="M2323 1903 c9 -2 25 -2 35 0 9 3 1 5 -18 5 -19 0 -27 -2 -17 -5z"/>
<path d="M2134 1776 c-8 -8 -7 -15 0 -22 8 -8 15 -7 22 0 8 8 7 15 0 22 -8 8
-15 7 -22 0z"/>
<path d="M2194 1776 c-8 -8 -7 -15 0 -22 8 -8 15 -7 22 0 8 8 7 15 0 22 -8 8
-15 7 -22 0z"/>
<path d="M2264 1776 c-8 -8 -7 -15 0 -22 8 -8 15 -7 22 0 8 8 7 15 0 22 -8 8
-15 7 -22 0z"/>
<path d="M2394 1776 c-8 -8 -7 -15 0 -22 8 -8 15 -7 22 0 8 8 7 15 0 22 -8 8
-15 7 -22 0z"/>
<path d="M2464 1776 c-8 -8 -7 -15 0 -22 8 -8 15 -7 22 0 8 8 7 15 0 22 -8 8
-15 7 -22 0z"/>
<path d="M2524 1776 c-8 -8 -7 -15 0 -22 8 -8 15 -7 22 0 8 8 7 15 0 22 -8 8
-15 7 -22 0z"/>
<path d="M2590 1780 c-12 -8 -12 -10 -1 -10 11 0 11 -3 1 -14 -10 -13 -8 -13
14 -3 14 7 21 14 16 15 -6 2 -8 8 -4 13 7 12 -7 11 -26 -1z"/>
<path d="M2323 1763 c9 -2 25 -2 35 0 9 3 1 5 -18 5 -19 0 -27 -2 -17 -5z"/>
<path d="M2653 1763 c9 -2 25 -2 35 0 9 3 1 5 -18 5 -19 0 -27 -2 -17 -5z"/>
<path d="M2728 1763 c7 -3 16 -2 19 1 4 3 -2 6 -13 5 -11 0 -14 -3 -6 -6z"/>
<path d="M2134 1636 c-8 -8 -7 -15 0 -22 8 -8 15 -7 22 0 8 8 7 15 0 22 -8 8
-15 7 -22 0z"/>
<path d="M2194 1636 c-8 -8 -7 -15 0 -22 8 -8 15 -7 22 0 8 8 7 15 0 22 -8 8
-15 7 -22 0z"/>
<path d="M2264 1636 c-8 -8 -7 -15 0 -22 8 -8 15 -7 22 0 8 8 7 15 0 22 -8 8
-15 7 -22 0z"/>
<path d="M2394 1636 c-8 -8 -7 -15 0 -22 8 -8 15 -7 22 0 8 8 7 15 0 22 -8 8
-15 7 -22 0z"/>
<path d="M2464 1636 c-8 -8 -7 -15 0 -22 8 -8 15 -7 22 0 8 8 7 15 0 22 -8 8
-15 7 -22 0z"/>
<path d="M2524 1636 c-8 -8 -7 -15 0 -22 8 -8 15 -7 22 0 8 8 7 15 0 22 -8 8
-15 7 -22 0z"/>
<path d="M2594 1636 c-8 -8 -7 -15 0 -22 8 -8 15 -7 22 0 8 8 7 15 0 22 -8 8
-15 7 -22 0z"/>
<path d="M2068 1623 c7 -3 16 -2 19 1 4 3 -2 6 -13 5 -11 0 -14 -3 -6 -6z"/>
<path d="M2323 1623 c9 -2 25 -2 35 0 9 3 1 5 -18 5 -19 0 -27 -2 -17 -5z"/>
<path d="M2658 1623 c7 -3 16 -2 19 1 4 3 -2 6 -13 5 -11 0 -14 -3 -6 -6z"/>
<path d="M2194 1496 c-8 -8 -7 -15 0 -22 8 -8 15 -7 22 0 8 8 7 15 0 22 -8 8
-15 7 -22 0z"/>
<path d="M2264 1496 c-8 -8 -7 -15 0 -22 8 -8 15 -7 22 0 8 8 7 15 0 22 -8 8
-15 7 -22 0z"/>
<path d="M2394 1496 c-8 -8 -7 -15 0 -22 8 -8 15 -7 22 0 8 8 7 15 0 22 -8 8
-15 7 -22 0z"/>
<path d="M2464 1496 c-8 -8 -7 -15 0 -22 8 -8 15 -7 22 0 8 8 7 15 0 22 -8 8
-15 7 -22 0z"/>
<path d="M2524 1496 c-8 -8 -7 -15 0 -22 8 -8 15 -7 22 0 8 8 7 15 0 22 -8 8
-15 7 -22 0z"/>
<path d="M2323 1483 c9 -2 25 -2 35 0 9 3 1 5 -18 5 -19 0 -27 -2 -17 -5z"/>
<path d="M2598 1483 c7 -3 16 -2 19 1 4 3 -2 6 -13 5 -11 0 -14 -3 -6 -6z"/>
<path d="M2445 1380 c-9 -14 3 -30 22 -30 12 0 12 -3 -4 -17 -10 -10 -14 -14
-7 -10 7 4 15 3 19 -3 3 -5 12 -10 18 -10 7 0 6 4 -3 10 -13 9 -13 11 0 20 11
7 11 10 2 10 -7 0 -11 4 -8 9 4 5 -3 7 -14 4 -22 -6 -28 12 -7 20 9 4 9 6 0 6
-6 1 -15 -3 -18 -9z"/>
<path d="M2194 1356 c-8 -8 -7 -15 0 -22 8 -8 15 -7 22 0 8 8 7 15 0 22 -8 8
-15 7 -22 0z"/>
<path d="M2264 1356 c-8 -8 -7 -15 0 -22 8 -8 15 -7 22 0 8 8 7 15 0 22 -8 8
-15 7 -22 0z"/>
<path d="M2394 1356 c-8 -8 -7 -15 0 -22 8 -8 15 -7 22 0 8 8 7 15 0 22 -8 8
-15 7 -22 0z"/>
<path d="M2138 1343 c7 -3 16 -2 19 1 4 3 -2 6 -13 5 -11 0 -14 -3 -6 -6z"/>
<path d="M2323 1343 c9 -2 25 -2 35 0 9 3 1 5 -18 5 -19 0 -27 -2 -17 -5z"/>
<path d="M2194 1216 c-8 -8 -7 -15 0 -22 8 -8 15 -7 22 0 8 8 7 15 0 22 -8 8
-15 7 -22 0z"/>
<path d="M2264 1216 c-8 -8 -7 -15 0 -22 8 -8 15 -7 22 0 8 8 7 15 0 22 -8 8
-15 7 -22 0z"/>
<path d="M2394 1216 c-8 -8 -7 -15 0 -22 8 -8 15 -7 22 0 8 8 7 15 0 22 -8 8
-15 7 -22 0z"/>
<path d="M2464 1216 c-8 -8 -7 -15 0 -22 8 -8 15 -7 22 0 8 8 7 15 0 22 -8 8
-15 7 -22 0z"/>
<path d="M2323 1203 c9 -2 25 -2 35 0 9 3 1 5 -18 5 -19 0 -27 -2 -17 -5z"/>
<path d="M2380 1099 c0 -5 5 -7 10 -4 6 3 10 2 10 -4 0 -5 -6 -12 -12 -14 -10
-4 -10 -6 0 -6 7 -1 11 -5 7 -10 -3 -6 4 -8 15 -6 22 4 28 -10 8 -18 -10 -4
-10 -6 -1 -6 20 -2 27 21 10 34 -15 11 -15 13 1 30 15 17 15 17 0 6 -11 -8
-18 -9 -23 -1 -8 13 -25 13 -25 -1z"/>
<path d="M2264 1076 c-8 -8 -7 -15 0 -22 8 -8 15 -7 22 0 8 8 7 15 0 22 -8 8
-15 7 -22 0z"/>
<path d="M2464 1076 c-8 -8 -7 -15 0 -22 8 -8 15 -7 22 0 8 8 7 15 0 22 -8 8
-15 7 -22 0z"/>
<path d="M2198 1063 c7 -3 16 -2 19 1 4 3 -2 6 -13 5 -11 0 -14 -3 -6 -6z"/>
<path d="M2323 1063 c9 -2 25 -2 35 0 9 3 1 5 -18 5 -19 0 -27 -2 -17 -5z"/>
<path d="M2380 959 c0 -5 5 -7 10 -4 6 3 10 2 10 -4 0 -5 -6 -12 -12 -14 -10
-4 -10 -6 0 -6 7 -1 11 -5 7 -10 -3 -6 4 -8 15 -6 22 4 28 -10 8 -18 -10 -4
-10 -6 -1 -6 20 -2 27 21 10 34 -15 11 -15 13 1 30 15 17 15 17 0 6 -11 -8
-18 -9 -23 -1 -8 13 -25 13 -25 -1z"/>
<path d="M2264 936 c-8 -8 -7 -15 0 -22 8 -8 15 -7 22 0 8 8 7 15 0 22 -8 8
-15 7 -22 0z"/>
<path d="M2463 933 c9 -2 23 -2 30 0 6 3 -1 5 -18 5 -16 0 -22 -2 -12 -5z"/>
<path d="M2323 923 c9 -2 25 -2 35 0 9 3 1 5 -18 5 -19 0 -27 -2 -17 -5z"/>
<path d="M2463 913 c9 -2 23 -2 30 0 6 3 -1 5 -18 5 -16 0 -22 -2 -12 -5z"/>
<path d="M2380 819 c0 -5 5 -7 10 -4 6 3 10 2 10 -4 0 -5 -6 -12 -12 -14 -10
-4 -10 -6 0 -6 7 -1 11 -5 7 -10 -3 -6 4 -8 15 -6 22 4 28 -10 8 -18 -10 -4
-10 -6 -1 -6 20 -2 27 21 10 34 -15 11 -15 13 1 30 15 17 15 17 0 6 -11 -8
-18 -9 -23 -1 -8 13 -25 13 -25 -1z"/>
<path d="M2453 805 c0 -6 8 -11 17 -11 9 0 17 5 17 11 0 6 -8 11 -17 11 -9 0
-17 -5 -17 -11z"/>
<path d="M2323 783 c9 -2 25 -2 35 0 9 3 1 5 -18 5 -19 0 -27 -2 -17 -5z"/>
<path d="M2380 679 c0 -5 5 -7 10 -4 6 3 10 2 10 -4 0 -5 -6 -12 -12 -14 -10
-4 -10 -6 0 -6 7 -1 11 -5 7 -10 -3 -6 4 -8 15 -6 22 4 28 -10 8 -18 -10 -4
-10 -6 -1 -6 20 -2 27 21 10 34 -15 11 -15 13 1 30 15 17 15 17 0 6 -11 -8
-18 -9 -23 -1 -8 13 -25 13 -25 -1z"/>
<path d="M2464 656 c-8 -8 -7 -15 0 -22 8 -8 15 -7 22 0 8 8 7 15 0 22 -8 8
-15 7 -22 0z"/>
<path d="M2323 643 c9 -2 25 -2 35 0 9 3 1 5 -18 5 -19 0 -27 -2 -17 -5z"/>
<path d="M2394 516 c-8 -8 -7 -15 0 -22 8 -8 15 -7 22 0 8 8 7 15 0 22 -8 8
-15 7 -22 0z"/>
<path d="M2464 516 c-8 -8 -7 -15 0 -22 8 -8 15 -7 22 0 8 8 7 15 0 22 -8 8
-15 7 -22 0z"/>
<path d="M2328 503 c7 -3 16 -2 19 1 4 3 -2 6 -13 5 -11 0 -14 -3 -6 -6z"/>
<path d="M2399 408 c-6 -20 -6 -39 0 -42 4 -3 7 6 7 20 0 20 -4 32 -7 22z"/>
<path d="M2445 400 c-9 -14 3 -30 22 -30 12 0 12 -3 -4 -17 -10 -10 -14 -14
-7 -10 7 4 15 3 19 -3 3 -5 12 -10 18 -10 7 0 6 4 -3 10 -13 9 -13 11 0 20 11
7 11 10 2 10 -7 0 -11 4 -8 9 4 5 -3 7 -14 4 -22 -6 -28 12 -7 20 9 4 9 6 0 6
-6 1 -15 -3 -18 -9z"/>
<path d="M2199 268 c-6 -20 -6 -39 0 -42 4 -3 7 6 7 20 0 20 -4 32 -7 22z"/>
<path d="M2255 259 c-4 -6 -4 -13 -1 -16 3 -4 6 -1 6 6 0 8 8 11 20 8 11 -3
18 -1 14 4 -7 12 -31 11 -39 -2z"/>
<path d="M2350 261 c0 -5 -10 -12 -22 -14 -17 -3 -14 -5 9 -6 25 -1 31 2 27
14 -7 17 -14 20 -14 6z"/>
<path d="M2380 259 c0 -5 5 -7 10 -4 6 3 10 2 10 -4 0 -5 -6 -12 -12 -14 -10
-4 -10 -6 0 -6 7 -1 11 -5 7 -10 -3 -6 4 -8 15 -6 22 4 28 -10 8 -19 -7 -2 -4
-4 7 -3 11 2 25 6 32 10 6 4 14 3 18 -3 3 -5 12 -10 18 -10 7 0 6 4 -3 10 -13
9 -13 11 0 20 11 7 11 10 2 10 -7 0 -11 4 -8 9 4 5 -3 7 -14 4 -22 -6 -28 12
-7 21 6 2 3 4 -8 3 -11 -2 -25 -6 -32 -10 -6 -4 -14 -3 -18 3 -8 13 -25 13
-25 -1z m87 -29 c15 0 14 -2 -2 -13 -15 -12 -21 -12 -35 2 -12 11 -14 20 -7
29 9 11 12 10 19 -2 5 -9 16 -16 25 -16z"/>
<path d="M2510 259 c0 -5 5 -7 10 -4 6 3 10 2 10 -4 0 -5 -6 -12 -12 -14 -10
-4 -10 -6 0 -6 7 -1 11 -5 7 -10 -3 -6 4 -8 15 -6 22 4 28 -10 8 -18 -10 -4
-10 -6 -1 -6 20 -2 27 21 10 34 -15 11 -15 13 1 30 15 17 15 17 0 6 -11 -8
-18 -9 -23 -1 -8 13 -25 13 -25 -1z"/>
<path d="M2594 236 c-8 -8 -7 -15 0 -22 8 -8 15 -7 22 0 8 8 7 15 0 22 -8 8
-15 7 -22 0z"/>
<path d="M2266 232 c-3 -5 1 -9 9 -9 8 0 15 4 15 9 0 4 -4 8 -9 8 -6 0 -12 -4
-15 -8z"/>
<path d="M2316 221 c-3 -4 -1 -13 5 -21 7 -13 9 -13 9 0 0 12 2 12 9 2 7 -11
9 -11 14 1 6 15 -29 32 -37 18z"/>
<path d="M2658 223 c7 -3 16 -2 19 1 4 3 -2 6 -13 5 -11 0 -14 -3 -6 -6z"/>
<path d="M2728 223 c7 -3 16 -2 19 1 4 3 -2 6 -13 5 -11 0 -14 -3 -6 -6z"/>
<path d="M2268 203 c6 -2 18 -2 25 0 6 3 1 5 -13 5 -14 0 -19 -2 -12 -5z"/>
<path d="M2252 184 c9 -9 21 -15 27 -13 6 2 -2 10 -17 17 -25 11 -25 11 -10
-4z"/>
<path d="M2180 119 c0 -5 5 -7 10 -4 6 3 10 2 10 -4 0 -5 -6 -12 -12 -14 -10
-4 -10 -6 0 -6 7 -1 11 -5 7 -10 -3 -6 4 -8 15 -6 19 4 28 -9 13 -18 -5 -2 -3
-2 4 -1 6 2 17 -4 23 -12 7 -8 20 -14 29 -14 10 0 7 5 -9 13 -15 8 -24 20 -22
30 2 10 -1 17 -5 16 -30 -5 -35 2 -17 23 13 16 14 19 2 10 -11 -9 -18 -10 -23
-2 -8 13 -25 13 -25 -1z"/>
<path d="M2255 119 c-4 -6 -4 -13 -1 -16 3 -4 6 -1 6 6 0 8 8 11 20 8 11 -3
18 -1 14 4 -7 12 -31 11 -39 -2z"/>
<path d="M2312 101 c-9 -17 -26 -32 -37 -34 -18 -4 -18 -4 2 -6 16 -1 27 8 38
29 19 37 45 40 45 6 0 -20 -4 -24 -22 -21 -16 3 -19 2 -10 -7 19 -19 44 -1 40
29 -4 40 -34 42 -56 4z"/>
<path d="M2457 116 c-4 -10 -1 -16 8 -16 24 0 17 -18 -7 -23 -18 -3 -15 -5 8
-6 28 -1 31 2 28 25 -3 28 -14 46 -14 23 0 -11 -2 -12 -9 -1 -7 11 -9 11 -14
-2z"/>
<path d="M2585 119 c-4 -6 -4 -13 -1 -16 3 -4 6 -1 6 6 0 8 8 11 20 8 11 -3
18 -1 14 4 -7 12 -31 11 -39 -2z"/>
<path d="M2680 121 c0 -5 -10 -12 -22 -14 -17 -3 -14 -5 9 -6 25 -1 31 2 27
14 -7 17 -14 20 -14 6z"/>
<path d="M2386 84 c3 -28 14 -46 14 -23 0 11 2 12 9 1 7 -11 9 -11 14 2 4 10
1 16 -8 16 -24 0 -17 18 8 23 17 3 14 5 -9 6 -28 1 -31 -2 -28 -25z"/>
<path d="M2516 84 c3 -28 14 -46 14 -23 0 11 2 12 9 1 7 -11 9 -11 14 2 4 10
1 16 -8 16 -24 0 -17 18 8 23 17 3 14 5 -9 6 -28 1 -31 -2 -28 -25z"/>
<path d="M2063 93 c9 -2 23 -2 30 0 6 3 -1 5 -18 5 -16 0 -22 -2 -12 -5z"/>
<path d="M2266 92 c-3 -5 1 -9 9 -9 8 0 15 4 15 9 0 4 -4 8 -9 8 -6 0 -12 -4
-15 -8z"/>
<path d="M2596 92 c-3 -5 1 -9 9 -9 8 0 15 4 15 9 0 4 -4 8 -9 8 -6 0 -12 -4
-15 -8z"/>
<path d="M2723 93 c9 -2 23 -2 30 0 6 3 -1 5 -18 5 -16 0 -22 -2 -12 -5z"/>
<path d="M2138 83 c7 -3 16 -2 19 1 4 3 -2 6 -13 5 -11 0 -14 -3 -6 -6z"/>
<path d="M2646 81 c-3 -4 -1 -13 5 -21 7 -13 9 -13 9 0 0 12 2 12 9 2 7 -11 9
-11 14 1 6 15 -29 32 -37 18z"/>
<path d="M2063 73 c9 -2 23 -2 30 0 6 3 -1 5 -18 5 -16 0 -22 -2 -12 -5z"/>
<path d="M2723 73 c9 -2 23 -2 30 0 6 3 -1 5 -18 5 -16 0 -22 -2 -12 -5z"/>
<path d="M2598 63 c6 -2 18 -2 25 0 6 3 1 5 -13 5 -14 0 -19 -2 -12 -5z"/>
<path d="M2582 44 c9 -9 21 -15 27 -13 6 2 -2 10 -17 17 -25 11 -25 11 -10 -4z"/>
<path d="M2318 38 c5 -5 16 -8 23 -6 8 3 3 7 -10 11 -17 4 -21 3 -13 -5z"/>
</g>
</svg>
